<svg width="90" height="90" viewBox="0 0 90 90" fill="none" xmlns="http://www.w3.org/2000/svg">
<path d="M19.5564 61.5726L26.6109 54.4727L53.3883 27.7441L60.4428 20.6904C59.7173 18.261 59.6811 15.6779 60.3382 13.2292C60.9954 10.7804 62.3201 8.56242 64.1645 6.8226C66.0088 5.08278 68.3004 3.88956 70.7835 3.37608C73.2665 2.86261 75.8435 3.04906 78.2267 3.91464L69.9811 12.1594L71.6986 18.6223L78.1159 20.3118L86.3615 12.0025C87.2526 14.3936 87.4571 16.9862 86.9522 19.4874C86.4472 21.9886 85.2528 24.2988 83.5038 26.1571C81.7549 28.0153 79.5211 29.3475 77.0549 30.0032C74.5886 30.6589 71.9881 30.6119 69.5471 29.8677L62.4927 36.9306L35.7152 63.6592L28.6607 70.7129C29.3916 73.1442 29.4321 75.7308 28.7776 78.1838C28.1232 80.6367 26.7996 82.8595 24.9546 84.6036C23.1097 86.3478 20.8161 87.5447 18.3301 88.0607C15.8441 88.5767 13.2636 88.3915 10.8768 87.5256L19.1224 79.2716L17.4049 72.8088L10.9968 71.0915L2.76967 79.4009C1.88683 77.0121 1.68873 74.4242 2.19771 71.9288C2.70668 69.4335 3.90249 67.1299 5.65039 65.2775C7.3983 63.4252 9.62884 62.0978 12.0907 61.4448C14.5525 60.7918 17.1478 60.8393 19.5841 61.5818L19.5564 61.5726Z" fill="#5EB4E7"/>
<path d="M90.0001 89.9909L73.5642 85.1437L71.6621 83.2418L74.2752 80.6289L75.5125 81.8661L84.5338 84.5343L81.8652 75.5048L80.6279 74.2676L83.2411 71.6548L85.1432 73.5567L90.0001 89.9909Z" fill="#282D33"/>
<path d="M21.6192 12.5329L12.5371 21.614L72.8468 81.9176L81.9289 72.8365L21.6192 12.5329Z" fill="white"/>
<path d="M21.6155 15.1507L79.3164 72.8456L72.8528 79.3085L15.152 21.6228L21.6155 15.16V15.1507ZM21.6155 9.93428L9.92578 21.6228L72.8436 84.5342L84.5426 72.8456L21.6155 9.92505V9.93428Z" fill="#282D33"/>
<path d="M17.9222 15.3176L15.3105 17.929L74.9086 77.5209L77.5203 74.9095L17.9222 15.3176Z" fill="#282D33"/>
<path d="M5.74269 14.7723L2.12312 11.0792C1.91263 10.8162 1.81402 10.4809 1.84857 10.1458C1.88312 9.81073 2.04806 9.50265 2.30779 9.28808L9.3161 2.28049C9.53616 2.03623 9.84103 1.88498 10.1687 1.85754C10.4963 1.8301 10.8221 1.92852 11.0797 2.13277L14.7732 5.75197" fill="white"/>
<path d="M4.4398 16.0373L0.820226 12.4181C0.262153 11.8107 -0.031883 11.0066 0.00274597 10.1825C0.0373749 9.35838 0.397835 8.58177 1.0049 8.02332L8.00397 1.01573C8.63002 0.377422 9.48298 0.0123778 10.377 0.000133987C10.7553 -0.00353147 11.1305 0.0680437 11.4808 0.210696C11.8311 0.353348 12.1496 0.56423 12.4176 0.831074L16.0372 4.45028L13.4241 7.05389L10.3031 3.94248L3.93195 10.313L7.05291 13.4244L4.4398 16.0373Z" fill="#282D33"/>
<path d="M17.7523 6.06946L6.05859 17.762L12.9795 24.6822L24.6732 12.9896L17.7523 6.06946Z" fill="#F8C44F"/>
</svg>
