<svg width="90" height="90" viewBox="0 0 90 90" fill="none" xmlns="http://www.w3.org/2000/svg">
<path d="M90 13.6123H0V72.0842H90V13.6123Z" fill="#F8C44F"/>
<path d="M88.2437 1.75659H1.75586V11.8561H88.2437V1.75659Z" fill="white"/>
<path d="M90 13.6124H0V0H90V13.6124ZM3.5122 10.0995H86.4878V3.51288H3.5122V10.0995Z" fill="#282D33"/>
<path d="M88.2437 72.0843H1.75586V48.8115L9.69342 53.7822L25.4983 43.5421L39.5471 48.5129L52.4281 35.928L65.8885 42.6639L74.9588 33.0035L79.9373 36.2178L88.2437 26.8472V72.0843Z" fill="white"/>
<path d="M90 73.8408H0V45.6675L9.65854 51.736L25.2702 41.5925L39.0995 46.493L52.0946 33.7939L65.5024 40.5035L74.6868 30.7377L79.6215 33.9345L90 22.2278V73.8408ZM3.5122 70.3279H86.4878V31.4754L80.2537 38.5012L75.24 35.2606L66.2751 44.7893L52.762 38.027L39.9951 50.5328L25.7268 45.483L9.71122 55.8636L3.5122 51.9819V70.3279Z" fill="#282D33"/>
<path d="M8.99093 4.97949H5.70703V8.49237H8.99093V4.97949Z" fill="#282D33"/>
<path d="M14.6726 4.97949H11.3887V8.49237H14.6726V4.97949Z" fill="#282D33"/>
<path d="M20.3523 4.97949H17.0684V8.49237H20.3523V4.97949Z" fill="#282D33"/>
<path d="M64.6415 41.4959C64.6359 36.978 63.0645 32.6018 60.195 29.1127C57.3255 25.6235 53.3353 23.2372 48.9042 22.3603C44.4731 21.4833 39.8751 22.1699 35.8933 24.3032C31.9115 26.4364 28.7922 29.8843 27.0668 34.0596C25.3413 38.2348 25.1164 42.8793 26.4304 47.2018C27.7443 51.5244 30.5158 55.2577 34.2728 57.7658C38.0298 60.2739 42.54 61.4018 47.0351 60.9573C51.5302 60.5127 55.7322 58.5233 58.9254 55.3279C60.7453 53.5149 62.1876 51.3589 63.1688 48.9846C64.15 46.6104 64.6505 44.065 64.6415 41.4959Z" fill="white"/>
<path d="M45.1141 62.8015C40.195 62.7979 35.4293 61.0888 31.6286 57.9653C27.828 54.8417 25.2275 50.497 24.27 45.6711C23.3126 40.8451 24.0574 35.8364 26.3777 31.4981C28.6979 27.1597 32.4501 23.7601 36.9951 21.8781C41.5401 19.9961 46.5968 19.7483 51.304 21.1767C56.0112 22.6052 60.0777 25.6216 62.811 29.7122C65.5442 33.8029 66.7751 38.7147 66.2941 43.6112C65.813 48.5076 63.6497 53.0859 60.1726 56.5661C58.1981 58.5479 55.851 60.1191 53.2665 61.1893C50.682 62.2594 47.9113 62.8074 45.1141 62.8015ZM45.1141 23.7207C40.3984 23.7207 35.8759 25.5943 32.5414 28.9295C29.2069 32.2646 27.3336 36.788 27.3336 41.5046C27.3336 46.2212 29.2069 50.7447 32.5414 54.0798C35.8759 57.4149 40.3984 59.2886 45.1141 59.2886V61.045V59.2886C49.8298 59.2886 54.3523 57.4149 57.6868 54.0798C61.0213 50.7447 62.8946 46.2212 62.8946 41.5046C62.8946 36.788 61.0213 32.2646 57.6868 28.9295C54.3523 25.5943 49.8298 23.7207 45.1141 23.7207Z" fill="#282D33"/>
<path d="M55.7816 52.1225C53.3247 54.5856 50.0899 56.1203 46.6284 56.4649C43.1669 56.8094 39.6931 55.9426 36.799 54.0122C33.905 52.0817 31.77 49.2071 30.7578 45.8784C29.7457 42.5496 29.9191 38.9728 31.2485 35.7577C32.5779 32.5425 34.981 29.888 38.0482 28.2467C41.1154 26.6053 44.6568 26.0788 48.0687 26.7567C51.4807 27.4347 54.5519 29.2752 56.7589 31.9645C58.9659 34.6539 60.1721 38.0255 60.1718 41.5048C60.1774 43.4769 59.7923 45.4306 59.0388 47.253C58.2853 49.0754 57.1782 50.7304 55.7816 52.1225Z" fill="#5EB4E7"/>
<path d="M35.5962 41.5135H32.084C32.0886 38.0591 33.4614 34.7473 35.9019 32.303C38.3424 29.8588 41.6518 28.4812 45.1054 28.4719V31.9848C42.5825 31.9918 40.1652 32.9985 38.3829 34.7845C36.6005 36.5704 35.5985 38.9901 35.5962 41.5135Z" fill="white"/>
<path d="M50.8296 66.5164H39.3887V84.678H50.8296V66.5164Z" fill="#5EB4E7"/>
<path d="M41.1191 70.4244V66.5076H49.1006V70.4244" fill="white"/>
<path d="M42.8755 70.4245H39.3633V64.7512H50.8569V70.4245H47.3447V68.2641H42.8755V70.4245Z" fill="#282D33"/>
<path d="M49.1006 84.6692V86.5925C48.0419 87.6506 46.6065 88.2449 45.1099 88.2449C43.6132 88.2449 42.1778 87.6506 41.1191 86.5925V84.6692" fill="white"/>
<path d="M45.1057 90C44.1276 90.0059 43.1581 89.8171 42.2537 89.4447C41.3492 89.0723 40.5279 88.5237 39.8374 87.8308L39.3281 87.3126V84.678H42.8403V85.7845C43.4907 86.2498 44.2709 86.4987 45.0706 86.4959C45.8716 86.499 46.6539 86.2535 47.3096 85.7933V84.6692H50.8218V87.3038L50.3125 87.822C49.6312 88.5107 48.8204 89.0577 47.9267 89.4315C47.0331 89.8053 46.0743 89.9985 45.1057 90Z" fill="#282D33"/>
<path d="M47.1782 61.1855H43.666V65.5152H47.1782V61.1855Z" fill="#282D33"/>
<path d="M40.2845 51.0511L28.6328 47.1255L29.7567 43.797L39.266 47.0025L51.4621 33.9521L62.2972 40.3105L60.5235 43.3403L52.1118 38.4047L40.2845 51.0511Z" fill="white"/>
</svg>
