<svg width="90" height="92" viewBox="0 0 90 92" fill="none" xmlns="http://www.w3.org/2000/svg">
<path d="M17.2433 63.3308C13.8306 63.3308 10.4945 62.3138 7.65703 60.4085C4.81958 58.5032 2.60822 55.7952 1.30265 52.627C-0.00291395 49.4587 -0.344032 45.9726 0.322444 42.6096C0.98892 39.2466 2.63305 36.1576 5.04687 33.7336C7.4607 31.3095 10.5358 29.6592 13.8832 28.9914C17.2305 28.3235 20.6999 28.6682 23.8523 29.9817C27.0047 31.2953 29.6986 33.5187 31.5933 36.3708C33.4879 39.2229 34.4982 42.5755 34.4964 46.0045C34.4914 50.5998 32.6717 55.0054 29.437 58.2538C26.2022 61.5023 21.8167 63.3283 17.2433 63.3308ZM17.2433 32.4498C14.5752 32.4498 11.967 33.2448 9.74859 34.7342C7.53015 36.2236 5.80108 38.3406 4.78005 40.8174C3.75901 43.2942 3.49186 46.0196 4.01238 48.6489C4.5329 51.2783 5.81771 53.6935 7.70434 55.5892C9.59097 57.4848 11.9947 58.7758 14.6115 59.2988C17.2283 59.8218 19.9407 59.5534 22.4057 58.5275C24.8707 57.5015 26.9776 55.7642 28.4599 53.5351C29.9422 51.3061 30.7334 48.6854 30.7334 46.0045C30.7309 42.4104 29.3089 38.9641 26.7795 36.4227C24.2502 33.8812 20.8203 32.4523 17.2433 32.4498Z" fill="#282D33"/>
<path d="M17.2427 56.0808C15.2571 56.0808 13.316 55.489 11.6651 54.3804C10.0142 53.2717 8.7277 51.696 7.96825 49.8526C7.2088 48.0091 7.01057 45.9807 7.39864 44.024C7.78671 42.0673 8.74364 40.2702 10.1484 38.8601C11.5531 37.45 13.3425 36.4902 15.2902 36.1021C17.238 35.714 19.2565 35.9151 21.0905 36.6799C22.9244 37.4447 24.4914 38.7389 25.5933 40.3987C26.6951 42.0585 27.2822 44.0094 27.2803 46.0046C27.2778 48.6778 26.2192 51.2407 24.3371 53.1301C22.4549 55.0195 19.9032 56.0808 17.2427 56.0808ZM17.2427 39.6998C16.0017 39.6998 14.7885 40.0696 13.7567 40.7624C12.7248 41.4551 11.9206 42.4398 11.4456 43.5918C10.9707 44.7439 10.8465 46.0116 11.0886 47.2346C11.3307 48.4576 11.9283 49.581 12.8058 50.4627C13.6834 51.3444 14.8014 51.9449 16.0186 52.1882C17.2357 52.4314 18.4974 52.3066 19.6439 51.8294C20.7905 51.3522 21.7705 50.5441 22.4599 49.5073C23.1494 48.4705 23.5174 47.2515 23.5174 46.0046C23.5174 44.3324 22.8563 42.7288 21.6796 41.5464C20.5029 40.3641 18.9069 39.6998 17.2427 39.6998Z" fill="#282D33"/>
<path d="M72.7472 34.6618C69.3349 34.6618 65.9992 33.6451 63.1619 31.7402C60.3247 29.8354 58.1133 27.1279 56.8075 23.9602C55.5016 20.7925 55.1599 17.3069 55.8257 13.9441C56.4914 10.5813 58.1346 7.49242 60.5475 5.06798C62.9603 2.64355 66.0345 0.992486 69.3813 0.323586C72.7281 -0.345314 76.1971 -0.00201027 79.3497 1.31008C82.5023 2.62218 85.1968 4.84413 87.0926 7.69497C88.9884 10.5458 90.0003 13.8975 90.0003 17.3261C89.9953 21.9223 88.176 26.3288 84.9415 29.5788C81.707 32.8288 77.3215 34.6568 72.7472 34.6618ZM72.7472 3.78089C70.0787 3.78089 67.4702 4.5761 65.2515 6.06593C63.0329 7.55576 61.3038 9.67327 60.2831 12.1506C59.2623 14.628 58.9957 17.3539 59.517 19.9835C60.0383 22.6131 61.324 25.0283 63.2116 26.9236C65.0991 28.8189 67.5037 30.1091 70.1212 30.631C72.7386 31.153 75.4513 30.8832 77.9162 29.8558C80.381 28.8284 82.4872 27.0896 83.9684 24.8593C85.4496 22.629 86.2392 20.0074 86.2373 17.3261C86.2323 13.7336 84.8092 10.2898 82.2801 7.75039C79.751 5.21098 76.3226 3.78339 72.7472 3.78089Z" fill="#282D33"/>
<path d="M80.9022 17.3261C80.904 18.9474 80.4273 20.5328 79.5322 21.8817C78.6371 23.2307 77.3639 24.2825 75.8738 24.9043C74.3836 25.526 72.7433 25.6896 71.1606 25.3745C69.5778 25.0593 68.1237 24.2796 66.9821 23.1338C65.8405 21.9881 65.0627 20.5279 64.7473 18.9379C64.4318 17.3479 64.5928 15.6996 65.2098 14.2016C65.8268 12.7036 66.8722 11.4231 68.2137 10.5222C69.5552 9.62126 71.1325 9.14038 72.746 9.14038C74.9075 9.14038 76.9806 10.0025 78.51 11.5374C80.0393 13.0722 80.8997 15.1543 80.9022 17.3261Z" fill="#5EB4E7"/>
<path d="M72.746 91.9998C69.3359 91.998 66.0029 90.9802 63.1685 89.0753C60.334 87.1703 58.1253 84.4636 56.8216 81.2975C55.5179 78.1314 55.1778 74.648 55.8442 71.2877C56.5106 67.9273 58.1537 64.841 60.5656 62.4188C62.9775 59.9966 66.0501 58.3474 69.3948 57.6796C72.7394 57.0119 76.2061 57.3555 79.3564 58.6672C82.5067 59.9789 85.1993 62.1996 87.0936 65.0487C88.9879 67.8978 89.999 71.2472 89.999 74.6736C89.994 79.2689 88.1744 83.6744 84.9396 86.9229C81.7049 90.1714 77.3194 91.9973 72.746 91.9998ZM72.746 61.1284C70.0801 61.1302 67.4747 61.9262 65.2591 63.4157C63.0434 64.9053 61.317 67.0214 60.2981 69.4966C59.2792 71.9719 59.0136 74.6951 59.5348 77.322C60.0561 79.9489 61.3407 82.3615 63.2264 84.2549C65.1121 86.1483 67.5141 87.4374 70.1289 87.9593C72.7436 88.4812 75.4537 88.2124 77.9164 87.1869C80.3791 86.1614 82.484 84.4253 83.9648 82.198C85.4457 79.9707 86.2361 77.3522 86.2361 74.6736C86.2311 71.0811 84.8079 67.6373 82.2789 65.0979C79.7498 62.5585 76.3214 61.1309 72.746 61.1284Z" fill="#282D33"/>
<path d="M80.9022 74.6737C80.9022 76.2946 80.4238 77.879 79.5276 79.2267C78.6314 80.5744 77.3576 81.6248 75.8672 82.2451C74.3769 82.8654 72.737 83.0277 71.1548 82.7115C69.5727 82.3953 68.1194 81.6147 66.9787 80.4686C65.8381 79.3225 65.0613 77.8622 64.7466 76.2725C64.4319 74.6828 64.5934 73.035 65.2107 71.5376C65.828 70.0401 66.8734 68.7602 68.2147 67.8597C69.556 66.9592 71.1329 66.4785 72.746 66.4785C73.8171 66.4785 74.8777 66.6905 75.8672 67.1023C76.8568 67.5142 77.7559 68.1178 78.5133 68.8788C79.2707 69.6398 79.8714 70.5433 80.2813 71.5376C80.6912 72.5318 80.9022 73.5975 80.9022 74.6737Z" fill="#F8C44F"/>
<path d="M29.9787 53.2648L28.2715 56.6343L56.9598 71.309L58.667 67.9396L29.9787 53.2648Z" fill="#282D33"/>
<path d="M56.599 20.901L28.1035 35.4771L29.8107 38.8465L58.3062 24.2704L56.599 20.901Z" fill="#282D33"/>
</svg>
