<svg width="130" height="110" viewBox="0 0 130 110" fill="none" xmlns="http://www.w3.org/2000/svg">
<g clip-path="url(#clip0)">
<path d="M118.666 39.5406C121.44 36.766 123.105 33.2849 123.105 29.4865C123.105 21.2958 115.388 14.5282 105.33 13.3201C102.152 7.42279 94.6873 3.27625 85.9815 3.27625C74.3905 3.27625 64.9987 10.6069 64.9987 19.6576C64.9987 23.4458 66.6632 26.9269 69.4374 29.7117C67.8939 32.8549 65.6746 35.2916 65.6343 35.3326C64.9987 36.0186 64.8171 37.0219 65.1904 37.8922C65.5536 38.7625 66.4009 39.3256 67.329 39.3256C72.726 39.3256 77.084 37.2574 79.959 35.3531C80.8871 35.5681 81.8454 35.7319 82.824 35.8548C85.9916 41.7316 93.4263 45.8679 102.122 45.8679C104.22 45.8679 106.238 45.6222 108.155 45.1717C111.03 47.0658 115.377 49.1442 120.785 49.1442C121.713 49.1442 122.55 48.5811 122.923 47.7108C123.286 46.8405 123.115 45.8372 122.479 45.1512C122.439 45.1205 120.21 42.6838 118.666 39.5406ZM79.041 30.0906L77.316 31.227C75.8936 32.1587 74.441 32.8959 72.9681 33.418C73.2405 32.9368 73.5129 32.4249 73.7752 31.9027L75.3388 28.7186L72.837 26.2102C71.4751 24.8383 69.8409 22.5961 69.8409 19.6576C69.8409 13.443 77.2353 8.19067 85.9815 8.19067C94.7276 8.19067 102.122 13.443 102.122 19.6576C102.122 25.8723 94.7276 31.1246 85.9815 31.1246C84.317 31.1246 82.6525 30.9301 81.0384 30.5513L79.041 30.0906ZM115.267 36.0391L112.775 38.5372L114.338 41.7214C114.601 42.2435 114.873 42.7554 115.145 43.2366C113.673 42.7145 112.22 41.9773 110.798 41.0456L109.073 39.9092L107.065 40.3801C105.451 40.7589 103.787 40.9535 102.122 40.9535C96.6746 40.9535 91.8123 38.8956 88.8767 35.865C99.0957 34.7593 106.964 27.9405 106.964 19.6576C106.964 19.3095 106.924 18.9717 106.894 18.6338C113.39 20.1184 118.263 24.4492 118.263 29.4865C118.263 32.4249 116.628 34.6671 115.267 36.0391Z" fill="#2F4B68"/>
</g>
<g clip-path="url(#clip1)">
<path d="M49.812 27.9198C49.812 31.5993 47.8329 34.5695 44.2424 34.5695C40.652 34.5695 38.6621 31.5882 38.6621 27.9198C38.6621 24.2513 40.652 21.27 44.2424 21.27C47.8329 21.27 49.812 24.2402 49.812 27.9198Z" fill="white"/>
<path d="M55.3389 61.2351C56.0992 61.2092 56.8199 60.8814 57.3487 60.3209C57.8774 59.7604 58.1728 59.0112 58.1724 58.2316V48.8555C58.1724 42.5715 54.0844 38.3932 47.9526 38.3932H40.523C34.3911 38.3932 31.2332 41.84 30.3032 48.8555L29.6651 58.2538C29.6326 58.6232 29.6736 58.9955 29.7858 59.3482C29.8979 59.7008 30.0788 60.0264 30.3175 60.3052C30.5562 60.584 30.8477 60.8102 31.1743 60.9701C31.5009 61.1299 31.8557 61.2201 32.2174 61.2351H55.3389Z" fill="#5EB4E7"/>
<path d="M62.9506 61.2794H26.181L19.0109 75.1553C18.5212 76.1095 18.2802 77.1773 18.3113 78.255C18.3423 79.3328 18.6444 80.384 19.1883 81.307C19.7322 82.23 20.4994 82.9934 21.4156 83.5234C22.3319 84.0533 23.3661 84.3318 24.4182 84.3319H64.0645C65.0954 84.331 66.1092 84.0624 67.0112 83.5511C67.9133 83.0398 68.6742 82.3025 69.2229 81.4082C69.7716 80.5138 70.0901 79.4916 70.1488 78.4368C70.2074 77.3821 70.0043 76.3294 69.5583 75.3769L62.9506 61.2794Z" fill="#FFB500"/>
<path d="M75.1821 65.1696C78.7617 65.1696 81.6709 61.7671 81.6709 57.5999C81.6709 53.4327 78.7617 50.0857 75.1821 50.0857C71.6025 50.0857 68.6934 53.4771 68.6934 57.6553C68.6934 61.8336 71.6133 65.1696 75.1821 65.1696Z" fill="white"/>
<path d="M78.1253 69.2925L72.718 69.226C72.1665 69.226 71.3986 69.3146 70.3712 70.7554L64.1312 79.256C64.1084 79.2902 64.0777 79.3182 64.0419 79.3375C64.0061 79.3568 63.9662 79.3669 63.9258 79.3668H56.3555C55.9145 79.3624 55.477 79.4478 55.0684 79.6181C54.6598 79.7884 54.2883 80.0401 53.9754 80.3587C53.6625 80.6773 53.4145 81.0564 53.2457 81.474C53.0769 81.8916 52.9908 82.3394 52.9922 82.7915V84.1214H65.7102C66.1929 84.1226 66.6711 84.0253 67.1168 83.835C67.5624 83.6447 67.9666 83.3653 68.3057 83.0131L74.0158 77.1613C74.0391 77.1351 74.0675 77.1142 74.0991 77.0999C74.1308 77.0855 74.165 77.0781 74.1996 77.0781C74.2342 77.0781 74.2684 77.0855 74.3001 77.0999C74.3318 77.1142 74.3601 77.1351 74.3835 77.1613C74.4291 77.2107 74.4545 77.2762 74.4545 77.3442C74.4545 77.4122 74.4291 77.4777 74.3835 77.5271L70.9661 81.0293C71.0091 81.0777 71.0323 81.1412 71.0309 81.2066V94.0517C71.0309 94.1223 71.0036 94.1899 70.9549 94.2398C70.9062 94.2897 70.8402 94.3177 70.7714 94.3177H62.4658C61.2144 94.3167 59.9979 94.7401 59.0061 95.522C58.0142 96.3039 57.3028 97.4003 56.9828 98.6401L56.388 109.025H61.8818L62.801 103.683C62.8065 103.62 62.8355 103.562 62.8819 103.521C62.9282 103.479 62.9884 103.458 63.0498 103.461H77.1844C78.5995 103.458 79.9555 102.88 80.9551 101.854C81.9547 100.827 82.516 99.4363 82.516 97.9862V75.8203C82.516 72.6284 80.71 69.9353 78.1253 69.2925Z" fill="#D9D9D9"/>
<path d="M13.5727 65.1696C10.0039 65.1696 7.08398 61.7671 7.08398 57.5999C7.08398 53.4327 10.0039 50.0857 13.5727 50.0857C17.1416 50.0857 20.0615 53.4771 20.0615 57.6553C20.0615 61.8336 17.1524 65.1696 13.5727 65.1696Z" fill="white"/>
<path d="M10.6418 69.2925L16.0491 69.226C16.6006 69.226 17.3576 69.3146 18.385 70.7554L24.625 79.256C24.6496 79.2884 24.6807 79.3151 24.7161 79.3342C24.7515 79.3533 24.7905 79.3644 24.8305 79.3668H32.4007C33.2841 79.3668 34.1314 79.7265 34.756 80.3666C35.3807 81.0068 35.7316 81.8751 35.7316 82.7804V84.1103H23.0461C22.0718 84.1079 21.1383 83.7093 20.4506 83.002L14.7405 77.1502C14.6932 77.1017 14.629 77.0745 14.5621 77.0745C14.4951 77.0745 14.4309 77.1017 14.3836 77.1502C14.3363 77.1987 14.3097 77.2645 14.3097 77.3331C14.3097 77.4017 14.3363 77.4675 14.3836 77.516L17.7902 81.0182C17.7549 81.0703 17.7361 81.1321 17.7361 81.1955V94.0517C17.7361 94.1223 17.7635 94.1899 17.8122 94.2398C17.8608 94.2897 17.9269 94.3177 17.9957 94.3177H26.2905C27.5428 94.318 28.76 94.7418 29.7533 95.5233C30.7466 96.3048 31.4605 97.4003 31.7843 98.6401L32.3791 109.025H26.8853L25.9552 103.683C25.9449 103.62 25.9131 103.563 25.8655 103.523C25.8179 103.482 25.7576 103.46 25.6957 103.461H11.5826C10.171 103.444 8.82188 102.862 7.82361 101.838C6.82534 100.815 6.25708 99.4329 6.24023 97.9862V75.8203C6.24023 72.6284 8.04627 69.9353 10.6418 69.2925Z" fill="#D9D9D9"/>
<path d="M22.7755 109.934H11.2039C8.2408 109.931 5.39923 108.726 3.29994 106.583C1.20065 104.44 0.0142856 101.533 0 98.496L0 69.1151C0 68.8212 0.113939 68.5393 0.316752 68.3315C0.519565 68.1236 0.794638 68.0068 1.08146 68.0068C1.36828 68.0068 1.64335 68.1236 1.84617 68.3315C2.04898 68.5393 2.16292 68.8212 2.16292 69.1151V98.496C2.17719 100.945 3.13567 103.288 4.82934 105.016C6.523 106.743 8.81444 107.714 11.2039 107.717H22.7755C23.0623 107.717 23.3374 107.834 23.5402 108.042C23.743 108.249 23.857 108.531 23.857 108.825C23.857 109.119 23.743 109.401 23.5402 109.609C23.3374 109.817 23.0623 109.934 22.7755 109.934Z" fill="#20201D"/>
<path d="M33.4599 110C33.1991 110.003 32.946 109.909 32.7473 109.736C32.5486 109.563 32.4176 109.322 32.3785 109.058L30.7996 98.7508C30.5191 97.7252 29.9194 96.8215 29.0917 96.1773C28.2639 95.5331 27.2535 95.1836 26.2142 95.1821H18.06C17.7732 95.1821 17.4981 95.0653 17.2953 94.8575C17.0925 94.6496 16.9785 94.3677 16.9785 94.0738V81.2398C16.9785 80.9458 17.0925 80.6639 17.2953 80.4561C17.4981 80.2482 17.7732 80.1315 18.06 80.1315C18.3468 80.1315 18.6219 80.2482 18.8247 80.4561C19.0275 80.6639 19.1414 80.9458 19.1414 81.2398V92.9655H26.225C27.7492 92.9664 29.2304 93.4829 30.4389 94.4348C31.6474 95.3866 32.5154 96.7207 32.9084 98.2299C32.9134 98.2667 32.9134 98.304 32.9084 98.3407L34.509 108.714C34.5407 108.995 34.4666 109.278 34.3018 109.504C34.1369 109.731 33.8938 109.884 33.6222 109.933L33.4599 110Z" fill="#20201D"/>
<path d="M26.4315 110C26.1707 110.003 25.9176 109.909 25.7189 109.736C25.5202 109.563 25.3892 109.322 25.3501 109.058L24.712 104.691H11.7345C9.98866 104.688 8.31513 103.976 7.08062 102.711C5.8461 101.446 5.1513 99.731 5.14844 97.9418V76.1639C5.14844 72.3624 7.31135 69.1594 10.4908 68.4058H10.6531L15.8873 67.9403C15.9663 67.9292 16.0463 67.9292 16.1252 67.9403C16.6564 67.9459 17.1772 68.0916 17.6375 68.3634C18.0978 68.6351 18.482 69.0238 18.7532 69.4919L25.3176 78.3583H32.2174C33.4402 78.3583 34.6131 78.8553 35.4788 79.7405C36.3445 80.6256 36.8323 81.8264 36.8352 83.0796V84.6534C36.8352 84.9473 36.7212 85.2292 36.5184 85.4371C36.3156 85.6449 36.0405 85.7617 35.7537 85.7617H23.0358C21.722 85.7613 20.462 85.2273 19.5318 84.2766L13.9191 78.5134C13.8059 78.4141 13.7139 78.2918 13.649 78.1543C13.5841 78.0168 13.5476 77.8671 13.5419 77.7144C13.5361 77.5618 13.5612 77.4096 13.6156 77.2674C13.6699 77.1251 13.7524 76.996 13.8578 76.888C13.9632 76.78 14.0892 76.6954 14.228 76.6397C14.3668 76.584 14.5153 76.5583 14.6643 76.5642C14.8132 76.5701 14.9593 76.6075 15.0935 76.674C15.2277 76.7405 15.347 76.8347 15.4439 76.9507L21.0675 82.7028C21.3238 82.9711 21.6301 83.1839 21.9682 83.3286C22.3064 83.4733 22.6694 83.5469 23.0358 83.5451H34.6939V83.0796C34.691 82.4143 34.4311 81.7772 33.9711 81.3078C33.511 80.8384 32.8882 80.5749 32.239 80.5749H24.8094C24.6415 80.5749 24.4759 80.5348 24.3257 80.4579C24.1755 80.3809 24.0449 80.2692 23.9442 80.1315L17.0012 70.8108C16.9122 70.6297 16.7764 70.4771 16.6086 70.3696C16.4408 70.2621 16.2474 70.2039 16.0495 70.2012H15.9955L10.9451 70.6446C9.82671 71.0448 8.86755 71.8103 8.21498 72.8235C7.56241 73.8366 7.25254 75.0414 7.33298 76.2525V97.9418C7.33298 99.144 7.79899 100.297 8.6285 101.147C9.458 101.997 10.5831 102.475 11.7561 102.475H25.6529C25.9137 102.472 26.1668 102.565 26.3655 102.739C26.5643 102.912 26.6952 103.153 26.7344 103.417L27.513 108.726C27.5345 108.87 27.528 109.017 27.494 109.158C27.4599 109.3 27.399 109.433 27.3146 109.55C27.2302 109.668 27.1241 109.767 27.0022 109.842C26.8804 109.917 26.7453 109.967 26.6046 109.989L26.4315 110Z" fill="#20201D"/>
<path d="M77.4324 109.934H65.8608C65.5739 109.934 65.2989 109.817 65.096 109.609C64.8932 109.401 64.7793 109.119 64.7793 108.825C64.7793 108.531 64.8932 108.249 65.096 108.042C65.2989 107.834 65.5739 107.717 65.8608 107.717H77.4324C79.8293 107.726 82.1319 106.76 83.8349 105.031C85.5379 103.303 86.5023 100.952 86.5166 98.496V69.1151C86.5166 68.8212 86.6306 68.5393 86.8334 68.3315C87.0362 68.1236 87.3113 68.0068 87.5981 68.0068C87.8849 68.0068 88.16 68.1236 88.3628 68.3315C88.5656 68.5393 88.6795 68.8212 88.6795 69.1151V98.496C88.6652 101.54 87.4729 104.454 85.3643 106.599C83.2556 108.743 80.403 109.942 77.4324 109.934Z" fill="#20201D"/>
<path d="M55.6302 110H55.5005C55.359 109.982 55.2224 109.936 55.0984 109.864C54.9744 109.792 54.8656 109.695 54.7782 109.58C54.6907 109.464 54.6264 109.333 54.5889 109.192C54.5514 109.051 54.5414 108.904 54.5596 108.759L55.8033 98.3851C55.7981 98.3372 55.7981 98.2889 55.8033 98.241C56.1984 96.7309 57.0685 95.3965 58.2788 94.4448C59.4891 93.493 60.9719 92.9769 62.4975 92.9766H69.581V81.2398C69.581 80.9458 69.695 80.6639 69.8978 80.4561C70.1006 80.2482 70.3757 80.1315 70.6625 80.1315C70.9493 80.1315 71.2244 80.2482 71.4272 80.4561C71.63 80.6639 71.744 80.9458 71.744 81.2398V94.0738C71.744 94.3677 71.63 94.6496 71.4272 94.8575C71.2244 95.0653 70.9493 95.1821 70.6625 95.1821H62.5191C61.4826 95.1823 60.4743 95.5285 59.6469 96.1685C58.8196 96.8084 58.2182 97.7071 57.9337 98.7286L56.7009 109.025C56.6692 109.293 56.5429 109.54 56.3457 109.72C56.1485 109.9 55.8941 109.999 55.6302 110Z" fill="#20201D"/>
<path d="M62.2489 110H62.0759C61.7957 109.951 61.5456 109.791 61.3797 109.555C61.2137 109.318 61.1452 109.024 61.1891 108.737L62.0218 103.428C62.0632 103.166 62.1953 102.927 62.3938 102.756C62.5922 102.586 62.844 102.493 63.1033 102.497H76.9892C78.1614 102.494 79.2848 102.015 80.1137 101.166C80.9426 100.317 81.4095 99.1653 81.4123 97.964V76.1638C81.4921 74.9513 81.1806 73.7455 80.526 72.7322C79.8714 71.7188 78.9098 70.9542 77.7895 70.5559L72.7391 70.1125C72.5541 70.1047 72.3708 70.1505 72.2101 70.2446C72.0495 70.3387 71.9179 70.4773 71.8306 70.6445L64.7903 80.0096C64.6907 80.1458 64.5618 80.2566 64.4136 80.3335C64.2655 80.4103 64.102 80.4512 63.936 80.4529H56.4955C56.1737 80.4558 55.8555 80.5238 55.5593 80.6531C55.2632 80.7823 54.9948 80.9703 54.7697 81.2061C54.5447 81.4419 54.3672 81.721 54.2477 82.0273C54.1281 82.3336 54.0688 82.6611 54.0731 82.9909V83.4564H65.7096C66.0758 83.457 66.4384 83.3828 66.7764 83.2382C67.1143 83.0935 67.4208 82.8814 67.6778 82.6141L73.2906 76.862C73.4975 76.6805 73.7636 76.5856 74.0358 76.5964C74.308 76.6071 74.5661 76.7228 74.7587 76.9202C74.9513 77.1175 75.0642 77.3821 75.0747 77.6611C75.0852 77.94 74.9926 78.2127 74.8155 78.4247L69.2135 84.1879C68.7556 84.6593 68.2112 85.0332 67.6117 85.2881C67.0122 85.5429 66.3694 85.6738 65.7204 85.673H52.9916C52.7048 85.673 52.4297 85.5562 52.2269 85.3484C52.0241 85.1405 51.9102 84.8586 51.9102 84.5647V82.9909C51.9102 81.7387 52.3955 80.5378 53.2595 79.6524C54.1235 78.767 55.2953 78.2696 56.5172 78.2696H63.4169L70.0354 69.4032C70.3017 68.9588 70.6733 68.5905 71.1158 68.3328C71.5583 68.0751 72.0571 67.9362 72.566 67.9292H72.8472L78.0815 68.3947H78.2437C81.3907 69.1705 83.651 72.3735 83.651 76.1527V97.9418C83.6453 99.7301 82.9495 101.443 81.7157 102.708C80.4818 103.972 78.8099 104.685 77.0649 104.691H64.0874L63.3952 109.124C63.3409 109.388 63.1944 109.623 62.9834 109.784C62.7724 109.945 62.5112 110.022 62.2489 110Z" fill="#20201D"/>
<path d="M13.4105 66.3221C9.27935 66.3221 5.91602 62.4874 5.91602 57.7661C5.91602 53.0448 9.27935 49.2101 13.4105 49.2101C17.5417 49.2101 20.905 53.0448 20.905 57.7661C20.905 62.4874 17.5417 66.3221 13.4105 66.3221ZM13.4105 51.4267C10.469 51.4267 8.07893 54.2639 8.07893 57.7661C8.07893 61.2683 10.469 64.1056 13.4105 64.1056C16.3521 64.1056 18.7421 61.2572 18.7421 57.7661C18.7421 54.275 16.3521 51.4267 13.4105 51.4267Z" fill="#20201D"/>
<path d="M75.0316 66.3221C70.9004 66.3221 67.5371 62.4874 67.5371 57.7661C67.5371 53.0448 70.9004 49.2101 75.0316 49.2101C79.1628 49.2101 82.5261 53.0448 82.5261 57.7661C82.5261 62.4874 79.1628 66.3221 75.0316 66.3221ZM75.0316 51.4267C72.09 51.4267 69.7 54.2639 69.7 57.7661C69.7 61.2683 72.09 64.1056 75.0316 64.1056C77.9732 64.1056 80.3632 61.2572 80.3632 57.7661C80.3632 54.275 77.9732 51.4267 75.0316 51.4267Z" fill="#20201D"/>
<path d="M44.3395 35.6779C40.4138 35.6779 37.6777 32.486 37.6777 27.9198C37.6777 23.3536 40.403 20.1617 44.3395 20.1617C48.276 20.1617 50.9905 23.3536 50.9905 27.9198C50.9905 32.486 48.2436 35.6779 44.3395 35.6779ZM44.3395 22.3783C41.0194 22.3783 39.8407 25.3707 39.8407 27.9198C39.8407 30.4689 41.0194 33.4613 44.3395 33.4613C47.6596 33.4613 48.8276 30.4689 48.8276 27.9198C48.8276 25.3707 47.638 22.3783 44.3395 22.3783Z" fill="#20201D"/>
<path d="M44.3393 62.3545C44.0525 62.3545 43.7774 62.2377 43.5746 62.0299C43.3718 61.822 43.2578 61.5401 43.2578 61.2462V57.4337C43.2578 57.0383 43.334 56.6469 43.4819 56.2817C43.6299 55.9166 43.8467 55.585 44.12 55.306C44.3933 55.0269 44.7177 54.8059 45.0745 54.6556C45.4313 54.5053 45.8136 54.4287 46.1994 54.4302H52.6881C52.975 54.4302 53.25 54.547 53.4528 54.7548C53.6557 54.9627 53.7696 55.2446 53.7696 55.5385C53.7696 55.8324 53.6557 56.1143 53.4528 56.3222C53.25 56.53 52.975 56.6468 52.6881 56.6468H46.1994C46.0976 56.6453 45.9966 56.6646 45.9022 56.7035C45.8078 56.7424 45.7219 56.8001 45.6494 56.8733C45.577 56.9465 45.5195 57.0338 45.4802 57.13C45.4409 57.2262 45.4207 57.3294 45.4207 57.4337V61.2462C45.4207 61.5401 45.3068 61.822 45.104 62.0299C44.9012 62.2377 44.6261 62.3545 44.3393 62.3545Z" fill="#20201D"/>
<path d="M55.4255 62.3544H48.0391C47.7523 62.3544 47.4772 62.2376 47.2744 62.0298C47.0716 61.822 46.9577 61.5401 46.9577 61.2461C46.9577 60.9522 47.0716 60.6703 47.2744 60.4624C47.4772 60.2546 47.7523 60.1378 48.0391 60.1378H55.4255C55.8989 60.1123 56.3446 59.9014 56.6706 59.5487C56.9967 59.196 57.1781 58.7285 57.1774 58.2426V48.8665C57.1774 43.1809 53.587 39.5125 48.0391 39.5125H40.6095C35.2022 39.5125 32.3363 42.4384 31.4712 49.0216L30.8331 58.3424C30.8123 58.5597 30.8341 58.7791 30.8971 58.9876C30.9602 59.1962 31.0632 59.3898 31.2002 59.557C31.3372 59.7242 31.5054 59.8617 31.6949 59.9615C31.8844 60.0612 32.0915 60.1212 32.3039 60.1378H40.6095C40.8963 60.1378 41.1714 60.2546 41.3742 60.4624C41.577 60.6703 41.691 60.9522 41.691 61.2461C41.691 61.5401 41.577 61.822 41.3742 62.0298C41.1714 62.2376 40.8963 62.3544 40.6095 62.3544H32.3039C31.8005 62.3407 31.305 62.2227 30.8472 62.0075C30.3895 61.7923 29.979 61.4844 29.6405 61.1023C29.302 60.7202 29.0424 60.2718 28.8775 59.7841C28.7127 59.2965 28.6458 58.7796 28.681 58.2648L29.3191 48.7889C30.3465 41.0308 34.0342 37.2959 40.6095 37.2959H48.0391C54.7982 37.2959 59.3404 41.9507 59.3404 48.8665V58.2426C59.3379 59.3152 58.9277 60.3446 58.1968 61.1123C57.4658 61.88 56.4717 62.3256 55.4255 62.3544Z" fill="#20201D"/>
<path d="M44.3405 62.3545C44.0537 62.3545 43.7786 62.2377 43.5758 62.0299C43.373 61.822 43.259 61.5401 43.259 61.2462V57.4337C43.259 57.3294 43.2388 57.2262 43.1996 57.13C43.1603 57.0338 43.1028 56.9465 43.0303 56.8733C42.9579 56.8001 42.8719 56.7424 42.7775 56.7035C42.6831 56.6646 42.5821 56.6453 42.4804 56.6468H35.9916C35.7048 56.6468 35.4297 56.53 35.2269 56.3222C35.0241 56.1143 34.9102 55.8324 34.9102 55.5385C34.9102 55.2446 35.0241 54.9627 35.2269 54.7548C35.4297 54.547 35.7048 54.4302 35.9916 54.4302H42.4804C42.8661 54.4287 43.2484 54.5053 43.6052 54.6556C43.9621 54.8059 44.2864 55.0269 44.5597 55.306C44.833 55.585 45.0499 55.9166 45.1978 56.2817C45.3458 56.6469 45.4219 57.0383 45.4219 57.4337V61.2462C45.4219 61.5401 45.308 61.822 45.1052 62.0299C44.9024 62.2377 44.6273 62.3545 44.3405 62.3545Z" fill="#20201D"/>
<path d="M68.5529 73.7255C68.3544 73.7259 68.1595 73.6703 67.9897 73.5647C67.8199 73.4592 67.6818 73.3077 67.5904 73.127L62.075 62.3433H26.614L21.2932 72.7391C21.2343 72.8789 21.148 73.0048 21.0396 73.1089C20.9311 73.213 20.8029 73.2931 20.663 73.3441C20.523 73.3952 20.3743 73.4162 20.226 73.4057C20.0778 73.3953 19.9333 73.3537 19.8014 73.2834C19.6696 73.2132 19.5533 73.1159 19.4598 72.9976C19.3663 72.8793 19.2976 72.7425 19.2579 72.5957C19.2183 72.449 19.2086 72.2954 19.2294 72.1447C19.2503 71.9939 19.3012 71.8492 19.379 71.7195L24.9918 60.7252C25.0831 60.5445 25.2213 60.3931 25.391 60.2875C25.5608 60.1819 25.7557 60.1263 25.9543 60.1267H62.7239C62.9213 60.1253 63.1155 60.1792 63.2851 60.2828C63.4548 60.3863 63.5936 60.5355 63.6864 60.7141L69.5154 72.0963C69.6487 72.3565 69.6758 72.6602 69.5906 72.9408C69.5054 73.2213 69.315 73.4558 69.0612 73.5925C68.905 73.6789 68.7304 73.7246 68.5529 73.7255Z" fill="#20201D"/>
<path d="M35.6889 85.6176C35.4021 85.6176 35.127 85.5008 34.9242 85.293C34.7214 85.0851 34.6074 84.8032 34.6074 84.5093C34.6074 84.2154 34.7214 83.9335 34.9242 83.7256C35.127 83.5178 35.4021 83.401 35.6889 83.401H52.1811C52.468 83.401 52.743 83.5178 52.9458 83.7256C53.1487 83.9335 53.2626 84.2154 53.2626 84.5093C53.2626 84.8032 53.1487 85.0851 52.9458 85.293C52.743 85.5008 52.468 85.6176 52.1811 85.6176H35.6889Z" fill="#20201D"/>
</g>
<defs>
<clipPath id="clip0">
<rect width="65" height="52.4205" fill="white" transform="translate(65)"/>
</clipPath>
<clipPath id="clip1">
<rect width="88.6364" height="89.8383" fill="white" transform="translate(0 20.1617)"/>
</clipPath>
</defs>
</svg>
