<svg width="130" height="110" viewBox="0 0 130 110" fill="none" xmlns="http://www.w3.org/2000/svg">
<g clip-path="url(#clip0)">
<path d="M119.307 16.4934L118.621 17.7283C118.371 18.186 117.836 18.376 117.359 18.1946C116.372 17.8147 115.47 17.2706 114.675 16.5884C114.291 16.2603 114.19 15.6817 114.441 15.2326L115.127 13.9977C114.55 13.3069 114.098 12.5038 113.797 11.6316H112.418C111.916 11.6316 111.482 11.2603 111.398 10.7421C111.231 9.70586 111.222 8.61777 111.398 7.53832C111.482 7.02019 111.916 6.64022 112.418 6.64022H113.797C114.098 5.76803 114.55 4.96492 115.127 4.27407L114.441 3.03918C114.19 2.59013 114.282 2.01154 114.675 1.68339C115.47 1.00118 116.381 0.457137 117.359 0.0771707C117.836 -0.104177 118.371 0.0858063 118.621 0.543493L119.307 1.77838C120.185 1.61431 121.079 1.61431 121.957 1.77838L122.643 0.543493C122.894 0.0858063 123.429 -0.104177 123.905 0.0771707C124.892 0.457137 125.795 1.00118 126.589 1.68339C126.974 2.01154 127.074 2.59013 126.823 3.03918L126.137 4.27407C126.714 4.96492 127.166 5.76803 127.467 6.64022H128.846C129.348 6.64022 129.783 7.01155 129.866 7.52969C130.033 8.56596 130.042 9.65405 129.866 10.7335C129.783 11.2516 129.348 11.6316 128.846 11.6316H127.467C127.166 12.5038 126.714 13.3069 126.137 13.9977L126.823 15.2326C127.074 15.6817 126.982 16.2603 126.589 16.5884C125.795 17.2706 124.883 17.8147 123.905 18.1946C123.429 18.376 122.894 18.186 122.643 17.7283L121.957 16.4934C121.088 16.6575 120.185 16.6575 119.307 16.4934ZM118.429 11.4157C121.648 13.9718 125.318 10.1808 122.843 6.85611C119.625 4.29134 115.954 8.091 118.429 11.4157ZM108.789 24.7059L111.607 26.1567C112.451 26.6575 112.819 27.7197 112.485 28.6696C111.741 30.7594 110.278 32.6765 108.923 34.3518C108.305 35.1204 107.234 35.3104 106.39 34.8095L103.957 33.3587C102.619 34.5418 101.064 35.4831 99.3672 36.0962V38.9978C99.3672 39.9995 98.6733 40.8631 97.7202 41.0358C95.6635 41.3985 93.5065 41.4158 91.3746 41.0358C90.4132 40.8631 89.7025 40.0082 89.7025 38.9978V36.0962C88.0053 35.4745 86.4503 34.5418 85.1126 33.3587L82.6797 34.8009C81.8437 35.3018 80.7652 35.1118 80.1465 34.3432C78.7921 32.6679 77.3625 30.7508 76.6184 28.6696C76.284 27.7283 76.6518 26.6662 77.4962 26.1567L80.2803 24.7059C79.9542 22.901 79.9542 21.0444 80.2803 19.2309L77.4962 17.7715C76.6518 17.2706 76.2756 16.2085 76.6184 15.2672C77.3625 13.1774 78.7921 11.2603 80.1465 9.58496C80.7652 8.81639 81.8353 8.62641 82.6797 9.12727L85.1126 10.5781C86.4503 9.39498 88.0053 8.4537 89.7025 7.84057V4.93037C89.7025 3.93728 90.3881 3.07372 91.3412 2.90101C93.3979 2.53832 95.5632 2.52104 97.6951 2.89237C98.6566 3.06509 99.3672 3.92001 99.3672 4.93037V7.83193C101.064 8.4537 102.619 9.38634 103.957 10.5694L106.39 9.11864C107.226 8.61777 108.305 8.80776 108.923 9.57632C110.278 11.2516 111.699 13.1687 112.443 15.2585C112.777 16.1998 112.451 17.262 111.607 17.7715L108.789 19.2223C109.116 21.0358 109.116 22.8924 108.789 24.7059ZM98.9576 26.528C103.907 19.8786 96.5581 12.2879 90.1205 17.4002C85.1711 24.0496 92.52 31.6403 98.9576 26.528ZM119.307 42.3052L118.621 43.5401C118.371 43.9978 117.836 44.1878 117.359 44.0064C116.372 43.6265 115.47 43.0824 114.675 42.4002C114.291 42.0721 114.19 41.4935 114.441 41.0444L115.127 39.8095C114.55 39.1187 114.098 38.3156 113.797 37.4434H112.418C111.916 37.4434 111.482 37.0721 111.398 36.5539C111.231 35.5176 111.222 34.4296 111.398 33.3501C111.482 32.832 111.916 32.452 112.418 32.452H113.797C114.098 31.5798 114.55 30.7767 115.127 30.0859L114.441 28.851C114.19 28.4019 114.282 27.8233 114.675 27.4952C115.47 26.813 116.381 26.2689 117.359 25.889C117.836 25.7076 118.371 25.8976 118.621 26.3553L119.307 27.5902C120.185 27.4261 121.079 27.4261 121.957 27.5902L122.643 26.3553C122.894 25.8976 123.429 25.7076 123.905 25.889C124.892 26.2689 125.795 26.813 126.589 27.4952C126.974 27.8233 127.074 28.4019 126.823 28.851L126.137 30.0859C126.714 30.7767 127.166 31.5798 127.467 32.452H128.846C129.348 32.452 129.783 32.8233 129.866 33.3415C130.033 34.3778 130.042 35.4658 129.866 36.5453C129.783 37.0634 129.348 37.4434 128.846 37.4434H127.467C127.166 38.3156 126.714 39.1187 126.137 39.8095L126.823 41.0444C127.074 41.4935 126.982 42.0721 126.589 42.4002C125.795 43.0824 124.883 43.6265 123.905 44.0064C123.429 44.1878 122.894 43.9978 122.643 43.5401L121.957 42.3052C121.088 42.4693 120.185 42.4693 119.307 42.3052ZM118.429 37.2189C121.648 39.775 125.318 35.984 122.843 32.6593C119.625 30.1031 115.954 33.8942 118.429 37.2189Z" fill="#2F4B68"/>
</g>
<g clip-path="url(#clip1)">
<path d="M63.0893 51.3557C65.9939 51.3557 68.3486 48.4383 68.3486 44.8396C68.3486 41.2409 65.9939 38.3236 63.0893 38.3236C60.1847 38.3236 57.8301 41.2409 57.8301 44.8396C57.8301 48.4383 60.1847 51.3557 63.0893 51.3557Z" fill="white"/>
<path d="M26.3179 51.3557C29.2225 51.3557 31.5771 48.4383 31.5771 44.8396C31.5771 41.2409 29.2225 38.3236 26.3179 38.3236C23.4132 38.3236 21.0586 41.2409 21.0586 44.8396C21.0586 48.4383 23.4132 51.3557 26.3179 51.3557Z" fill="white"/>
<path d="M76.7855 54.6137C79.1092 54.6137 80.9929 52.1826 80.9929 49.1837C80.9929 46.1848 79.1092 43.7537 76.7855 43.7537C74.4618 43.7537 72.5781 46.1848 72.5781 49.1837C72.5781 52.1826 74.4618 54.6137 76.7855 54.6137Z" fill="white"/>
<path d="M12.6215 54.6137C14.9452 54.6137 16.8289 52.1826 16.8289 49.1837C16.8289 46.1848 14.9452 43.7537 12.6215 43.7537C10.2978 43.7537 8.41406 46.1848 8.41406 49.1837C8.41406 52.1826 10.2978 54.6137 12.6215 54.6137Z" fill="white"/>
<path d="M1.63086 67.939C1.64198 65.5531 2.5678 63.2687 4.20583 61.5857C5.84386 59.9026 8.06079 58.9577 10.3717 58.9578H22.3629V88.4754H21.3846V108.914H6.56404V88.4754H1.63086V67.939Z" fill="#ECECEC"/>
<path d="M88.0609 67.939C88.0497 65.5512 87.1225 63.2652 85.4822 61.5818C83.8419 59.8984 81.6222 58.9549 79.3095 58.9578H67.3184V88.4754H68.3071V108.914H83.0961V88.4754H88.0398L88.0609 67.939Z" fill="#ECECEC"/>
<path d="M0.609375 67.939C0.620499 65.5531 1.54632 63.2687 3.18435 61.5857C4.82238 59.9026 7.03931 58.9577 9.35026 58.9578H21.3414V88.4754H20.3526V108.914H5.54256V88.4754H0.609375V67.939Z" fill="#ECECEC"/>
<path d="M75.5537 66.5598C75.5537 63.6795 74.4455 60.9172 72.4729 58.8805C70.5003 56.8439 67.8249 55.6997 65.0352 55.6997H53.4648V87.1939H54.5167V108.914H70.2945V87.1939H75.5537V66.5598Z" fill="#D9D9D9"/>
<path d="M14.0742 66.5598C14.0742 63.6795 15.1824 60.9172 17.155 58.8805C19.1276 56.8439 21.803 55.6997 24.5927 55.6997H36.1631V87.1939H35.1112V108.914H19.3335V87.1939H14.0742V66.5598Z" fill="#D9D9D9"/>
<path d="M75.7339 88.2799H73.6302C73.3513 88.2799 73.0837 88.1655 72.8864 87.9619C72.6892 87.7582 72.5784 87.482 72.5784 87.1939C72.5784 86.9059 72.6892 86.6297 72.8864 86.426C73.0837 86.2223 73.3513 86.1079 73.6302 86.1079H74.6821V66.234C74.6571 63.7041 73.6604 61.288 71.911 59.5163C70.1615 57.7447 67.8025 56.7626 65.3521 56.7858H59.9561C59.6772 56.7858 59.4096 56.6714 59.2124 56.4677C59.0151 56.264 58.9043 55.9878 58.9043 55.6998C58.9043 55.4118 59.0151 55.1355 59.2124 54.9319C59.4096 54.7282 59.6772 54.6138 59.9561 54.6138H65.3521C68.3596 54.5935 71.2521 55.8054 73.3954 57.9837C75.5388 60.162 76.758 63.129 76.7858 66.234V87.1939C76.7858 87.482 76.675 87.7582 76.4777 87.9619C76.2804 88.1655 76.0129 88.2799 75.7339 88.2799Z" fill="#3F3B3A"/>
<path d="M70.4737 110C70.1948 110 69.9272 109.886 69.73 109.682C69.5327 109.478 69.4219 109.202 69.4219 108.914V69.8178C69.4219 69.5298 69.5327 69.2536 69.73 69.0499C69.9272 68.8462 70.1948 68.7318 70.4737 68.7318H71.4625C71.7414 68.7232 72.0123 68.8293 72.2155 69.0269C72.4187 69.2244 72.5375 69.4972 72.5459 69.7852C72.5542 70.0733 72.4514 70.3529 72.2601 70.5627C72.0688 70.7725 71.8045 70.8952 71.5256 70.9038V108.914C71.5256 109.202 71.4148 109.478 71.2175 109.682C71.0202 109.886 70.7527 110 70.4737 110Z" fill="#3F3B3A"/>
<path d="M63.1104 110C62.8315 110 62.5639 109.886 62.3667 109.682C62.1694 109.478 62.0586 109.202 62.0586 108.914V88.2799C62.0586 87.9918 62.1694 87.7156 62.3667 87.5119C62.5639 87.3083 62.8315 87.1938 63.1104 87.1938C63.3894 87.1938 63.657 87.3083 63.8542 87.5119C64.0515 87.7156 64.1623 87.9918 64.1623 88.2799V108.914C64.1623 109.202 64.0515 109.478 63.8542 109.682C63.657 109.886 63.3894 110 63.1104 110Z" fill="#3F3B3A"/>
<path d="M63.1119 52.4417C59.3357 52.4417 56.8008 49.3901 56.8008 44.8397C56.8008 40.2893 59.3357 37.2377 63.1119 37.2377C66.888 37.2377 69.423 40.2893 69.423 44.8397C69.423 49.3901 66.867 52.4417 63.1119 52.4417ZM63.1119 39.4097C60.0089 39.4097 58.9045 42.2116 58.9045 44.8397C58.9045 47.4678 60.0089 50.2697 63.1119 50.2697C66.2149 50.2697 67.3193 47.4678 67.3193 44.8397C67.3193 42.2116 66.1938 39.4097 63.1119 39.4097Z" fill="#3F3B3A"/>
<path d="M88.3559 89.3659H86.2522C85.9732 89.3659 85.7057 89.2514 85.5084 89.0478C85.3112 88.8441 85.2003 88.5679 85.2003 88.2799C85.2003 87.9918 85.3112 87.7156 85.5084 87.5119C85.7057 87.3083 85.9732 87.1939 86.2522 87.1939H87.304V67.6458C87.304 63.0954 83.9276 60.0437 78.8892 60.0437H73.63C73.351 60.0437 73.0835 59.9293 72.8862 59.7256C72.6889 59.522 72.5781 59.2457 72.5781 58.9577C72.5781 58.6697 72.6889 58.3935 72.8862 58.1898C73.0835 57.9861 73.351 57.8717 73.63 57.8717H78.8892C85.0846 57.8717 89.4077 61.8899 89.4077 67.6458V88.2799C89.4077 88.5679 89.2969 88.8441 89.0997 89.0478C88.9024 89.2514 88.6349 89.3659 88.3559 89.3659Z" fill="#3F3B3A"/>
<path d="M83.0968 110C82.8178 110 82.5503 109.886 82.353 109.682C82.1557 109.478 82.0449 109.202 82.0449 108.914V74.1618C82.0449 73.8738 82.1557 73.5976 82.353 73.3939C82.5503 73.1902 82.8178 73.0758 83.0968 73.0758H84.1486C84.4276 73.0758 84.6951 73.1902 84.8924 73.3939C85.0897 73.5976 85.2005 73.8738 85.2005 74.1618C85.2005 74.4498 85.0897 74.7261 84.8924 74.9297C84.6951 75.1334 84.4276 75.2478 84.1486 75.2478V108.914C84.1486 109.202 84.0378 109.478 83.8405 109.682C83.6433 109.886 83.3757 110 83.0968 110Z" fill="#3F3B3A"/>
<path d="M75.7335 110C75.4545 110 75.187 109.886 74.9897 109.682C74.7925 109.478 74.6816 109.202 74.6816 108.914V91.5379C74.6816 91.2499 74.7925 90.9737 74.9897 90.77C75.187 90.5663 75.4545 90.4519 75.7335 90.4519C76.0125 90.4519 76.28 90.5663 76.4773 90.77C76.6745 90.9737 76.7853 91.2499 76.7853 91.5379V108.914C76.7853 109.202 76.6745 109.478 76.4773 109.682C76.28 109.886 76.0125 110 75.7335 110Z" fill="#3F3B3A"/>
<path d="M76.7846 55.6998C73.6291 55.6998 71.5254 53.0825 71.5254 49.1838C71.5254 45.285 73.6291 42.6677 76.7846 42.6677C79.9402 42.6677 82.0439 45.285 82.0439 49.1838C82.0439 53.0825 79.9402 55.6998 76.7846 55.6998ZM76.7846 44.8397C74.4601 44.8397 73.6291 47.0878 73.6291 49.1838C73.6291 51.2797 74.4601 53.5278 76.7846 53.5278C79.1092 53.5278 79.9402 51.2797 79.9402 49.1838C79.9402 47.0878 79.1092 44.8397 76.7846 44.8397Z" fill="#3F3B3A"/>
<path d="M15.7786 88.2799H13.6749C13.3959 88.2799 13.1284 88.1655 12.9311 87.9619C12.7339 87.7582 12.623 87.482 12.623 87.1939V66.234C12.6508 63.129 13.8701 60.162 16.0134 57.9837C18.1567 55.8054 21.0492 54.5935 24.0567 54.6138H29.4527C29.7316 54.6138 29.9992 54.7282 30.1964 54.9319C30.3937 55.1355 30.5045 55.4118 30.5045 55.6998C30.5045 55.9878 30.3937 56.264 30.1964 56.4677C29.9992 56.6714 29.7316 56.7858 29.4527 56.7858H24.0567C21.6063 56.7626 19.2473 57.7447 17.4979 59.5163C15.7484 61.288 14.7517 63.7041 14.7267 66.234V86.1079H15.7786C16.0576 86.1079 16.3251 86.2223 16.5224 86.426C16.7196 86.6297 16.8305 86.9059 16.8305 87.1939C16.8305 87.482 16.7196 87.7582 16.5224 87.9619C16.3251 88.1655 16.0576 88.2799 15.7786 88.2799Z" fill="#3F3B3A"/>
<path d="M18.9338 110C18.6548 110 18.3873 109.886 18.19 109.682C17.9927 109.478 17.8819 109.202 17.8819 108.914V70.9038C17.603 70.9038 17.3354 70.7894 17.1382 70.5857C16.9409 70.3821 16.8301 70.1058 16.8301 69.8178C16.8301 69.5298 16.9409 69.2536 17.1382 69.0499C17.3354 68.8462 17.603 68.7318 17.8819 68.7318H18.9338C19.2128 68.7318 19.4803 68.8462 19.6776 69.0499C19.8748 69.2536 19.9856 69.5298 19.9856 69.8178V108.914C19.9856 109.202 19.8748 109.478 19.6776 109.682C19.4803 109.886 19.2128 110 18.9338 110Z" fill="#3F3B3A"/>
<path d="M27.3487 110C27.0698 110 26.8022 109.886 26.605 109.682C26.4077 109.478 26.2969 109.202 26.2969 108.914V88.2799C26.2969 87.9918 26.4077 87.7156 26.605 87.5119C26.8022 87.3083 27.0698 87.1938 27.3487 87.1938C27.6277 87.1938 27.8952 87.3083 28.0925 87.5119C28.2898 87.7156 28.4006 87.9918 28.4006 88.2799V108.914C28.4006 109.202 28.2898 109.478 28.0925 109.682C27.8952 109.886 27.6277 110 27.3487 110Z" fill="#3F3B3A"/>
<path d="M26.2955 52.4417C22.5193 52.4417 19.9844 49.3901 19.9844 44.8397C19.9844 40.2893 22.5193 37.2377 26.2955 37.2377C30.0716 37.2377 32.6066 40.2893 32.6066 44.8397C32.6066 49.3901 30.0927 52.4417 26.2955 52.4417ZM26.2955 39.4097C23.1925 39.4097 22.0881 42.2116 22.0881 44.8397C22.0881 47.4678 23.1925 50.2697 26.2955 50.2697C29.3984 50.2697 30.5029 47.4678 30.5029 44.8397C30.5029 42.2116 29.451 39.4097 26.2955 39.4097Z" fill="#3F3B3A"/>
<path d="M3.15555 89.3659H1.05185C0.772883 89.3659 0.505341 89.2514 0.30808 89.0478C0.11082 88.8441 0 88.5679 0 88.2799V67.6458C0 61.8899 4.32311 57.8717 10.5185 57.8717H15.7778C16.0567 57.8717 16.3243 57.9861 16.5215 58.1898C16.7188 58.3935 16.8296 58.6697 16.8296 58.9577C16.8296 59.2457 16.7188 59.522 16.5215 59.7256C16.3243 59.9293 16.0567 60.0437 15.7778 60.0437H10.5185C5.48015 60.0437 2.1037 63.0954 2.1037 67.6458V87.1939H3.15555C3.43452 87.1939 3.70206 87.3083 3.89933 87.5119C4.09659 87.7156 4.20741 87.9918 4.20741 88.2799C4.20741 88.5679 4.09659 88.8441 3.89933 89.0478C3.70206 89.2514 3.43452 89.3659 3.15555 89.3659Z" fill="#3F3B3A"/>
<path d="M6.31073 110C6.03177 110 5.76422 109.886 5.56696 109.682C5.3697 109.478 5.25888 109.202 5.25888 108.914V75.2478C4.97991 75.2478 4.71237 75.1334 4.51511 74.9297C4.31785 74.7261 4.20703 74.4498 4.20703 74.1618C4.20703 73.8738 4.31785 73.5976 4.51511 73.3939C4.71237 73.1902 4.97991 73.0758 5.25888 73.0758H6.31073C6.5897 73.0758 6.85725 73.1902 7.05451 73.3939C7.25177 73.5976 7.36259 73.8738 7.36259 74.1618V108.914C7.36259 109.202 7.25177 109.478 7.05451 109.682C6.85725 109.886 6.5897 110 6.31073 110Z" fill="#3F3B3A"/>
<path d="M13.6749 110C13.3959 110 13.1284 109.886 12.9311 109.682C12.7339 109.478 12.623 109.202 12.623 108.914V91.5379C12.623 91.2499 12.7339 90.9737 12.9311 90.77C13.1284 90.5663 13.3959 90.4519 13.6749 90.4519C13.9539 90.4519 14.2214 90.5663 14.4187 90.77C14.6159 90.9737 14.7268 91.2499 14.7268 91.5379V108.914C14.7268 109.202 14.6159 109.478 14.4187 109.682C14.2214 109.886 13.9539 110 13.6749 110Z" fill="#3F3B3A"/>
<path d="M12.6225 55.6998C9.46698 55.6998 7.36328 53.0825 7.36328 49.1838C7.36328 45.285 9.46698 42.6677 12.6225 42.6677C15.7781 42.6677 17.8818 45.285 17.8818 49.1838C17.8818 53.0825 15.7781 55.6998 12.6225 55.6998ZM12.6225 44.8397C10.2979 44.8397 9.46698 47.0878 9.46698 49.1838C9.46698 51.2797 10.2979 53.5278 12.6225 53.5278C14.9471 53.5278 15.7781 51.2797 15.7781 49.1838C15.7781 47.0878 14.9471 44.8397 12.6225 44.8397Z" fill="#3F3B3A"/>
<path d="M62.5217 59.6202C62.3674 58.6571 62.1352 57.7089 61.8275 56.7858H53.7598V108.914H58.0303V74.9655H60.9229C62.5848 74.9655 64.4571 73.6731 64.0784 71.9898L62.5217 59.6202Z" fill="#B1B1B1"/>
<path d="M27.169 56.7858H36.7303V108.914H32.5229V75.2479H29.6409C25.6333 75.0307 24.3816 71.7292 24.7182 69.959C24.7182 69.9047 26.9586 57.6329 27.169 56.7858Z" fill="#B1B1B1"/>
<path d="M54.697 71.9899V108.827H48.3859L46.2822 83.9359H44.1785L42.0748 108.827H35.7637V71.9899H54.697Z" fill="#5EB4E7"/>
<path d="M39.0859 50.3566H51.5188L45.3024 63.4538L39.0859 50.3566Z" fill="white"/>
<path d="M60.7968 67.787L59.1875 56.1341C58.8442 54.4989 57.9694 53.0342 56.7085 51.9832C55.4476 50.9323 53.8763 50.3582 52.2558 50.3566H51.5405L46.2813 61.8139C46.1896 61.9811 46.0565 62.1201 45.8957 62.2168C45.735 62.3135 45.5522 62.3645 45.3662 62.3645C45.1801 62.3645 44.9974 62.3135 44.8366 62.2168C44.6758 62.1201 44.5428 61.9811 44.4511 61.8139L39.1918 50.3566H37.8665C34.4059 50.3566 30.5877 52.887 29.9145 56.1341L27.8108 67.787C27.5478 69.5028 29.357 70.5888 31.0189 70.5888H36.0889V76.551C36.0889 76.551 37.3616 79.5918 45.3031 79.5918C53.2445 79.5918 54.612 76.5619 54.612 76.5619V70.5888H57.5887C59.2506 70.5888 61.1229 69.3725 60.7968 67.787Z" fill="#5EB4E7"/>
<path d="M60.2702 64.9525C60.2702 66.8747 59.0922 68.1453 57.8615 68.1453H50.1199C48.7105 67.9819 47.3379 67.5744 46.0597 66.9399C46.0597 66.9399 39.8538 63.5081 35.3203 63.3018L35.7726 64.1923C39.98 65.4303 46.1439 69.1662 46.1439 69.1662C47.2964 69.6564 48.5185 69.9498 49.7622 70.035H57.4618C59.1342 70.035 60.996 68.8187 60.6173 67.2222L60.2702 64.9525Z" fill="#35C3E0"/>
<path d="M42.8631 67.9825L30.6301 68.0477C28.6632 67.8305 28.4423 66.0277 27.9479 65.0286L27.4535 67.1137C27.2011 68.8296 28.9997 69.9264 30.6722 69.9264H40.6648L46.6183 69.4486L44.3042 67.4286L42.8631 67.9825Z" fill="#35C3E0"/>
<path d="M45.2291 45.9258C48.7146 45.9258 51.5402 42.5222 51.5402 38.3237C51.5402 34.1252 48.7146 30.7217 45.2291 30.7217C41.7435 30.7217 38.918 34.1252 38.918 38.3237C38.918 42.5222 41.7435 45.9258 45.2291 45.9258Z" fill="white"/>
<path d="M45.2301 47.0117C40.8229 47.0117 37.8672 43.5256 37.8672 38.3237C37.8672 33.1217 40.8229 29.6356 45.2301 29.6356C49.6374 29.6356 52.5931 33.1217 52.5931 38.3237C52.5931 43.5256 49.6374 47.0117 45.2301 47.0117ZM45.2301 31.8076C41.3488 31.8076 39.9709 35.3154 39.9709 38.3237C39.9709 41.3319 41.3488 44.8397 45.2301 44.8397C49.1115 44.8397 50.4894 41.3319 50.4894 38.3237C50.4894 35.3154 49.1115 31.8076 45.2301 31.8076Z" fill="#3F3B3A"/>
<path d="M46.2825 51.3557H44.1788C43.8998 51.3557 43.6323 51.2413 43.435 51.0376C43.2378 50.834 43.127 50.5577 43.127 50.2697C43.127 49.9817 43.2378 49.7055 43.435 49.5018C43.6323 49.2981 43.8998 49.1837 44.1788 49.1837H46.2825C46.5615 49.1837 46.829 49.2981 47.0263 49.5018C47.2235 49.7055 47.3344 49.9817 47.3344 50.2697C47.3344 50.5577 47.2235 50.834 47.0263 51.0376C46.829 51.2413 46.5615 51.3557 46.2825 51.3557Z" fill="#3F3B3A"/>
<path d="M45.2296 63.3018C44.9506 63.3018 44.6831 63.1874 44.4858 62.9837C44.2886 62.78 44.1777 62.5038 44.1777 62.2158V50.2697C44.1777 49.9817 44.2886 49.7055 44.4858 49.5018C44.6831 49.2981 44.9506 49.1837 45.2296 49.1837C45.5086 49.1837 45.7761 49.2981 45.9734 49.5018C46.1706 49.7055 46.2814 49.9817 46.2814 50.2697V62.2158C46.2814 62.5038 46.1706 62.78 45.9734 62.9837C45.7761 63.1874 45.5086 63.3018 45.2296 63.3018Z" fill="#3F3B3A"/>
<path d="M34.0685 66.8964C33.8758 66.8955 33.687 66.84 33.5228 66.7358C33.3586 66.6317 33.2252 66.483 33.1373 66.3059C33.0494 66.1288 33.0103 65.9302 33.0242 65.7318C33.0382 65.5333 33.1047 65.3426 33.2165 65.1806L34.4892 63.3561C34.7807 62.8746 35.2188 62.5068 35.7348 62.3102C36.2507 62.1136 36.8152 62.0995 37.3397 62.2701L41.4735 63.0628C42.599 62.9325 48.8365 62.2918 53.1491 63.7036L52.844 60.4456C52.8177 60.159 52.9026 59.8734 53.0801 59.6514C53.2576 59.4294 53.5132 59.2893 53.7907 59.2618C54.0682 59.2346 54.3449 59.3223 54.5599 59.5055C54.7749 59.6888 54.9106 59.9527 54.9372 60.2392L55.4211 65.2566C55.4398 65.4524 55.4066 65.6498 55.3251 65.8277C55.2436 66.0056 55.1168 66.1573 54.9583 66.2666C54.7984 66.3619 54.617 66.4121 54.4323 66.4121C54.2477 66.4121 54.0663 66.3619 53.9064 66.2666C50.0146 64.0945 41.6839 65.1806 41.5997 65.1806C41.4913 65.1914 41.3821 65.1914 41.2737 65.1806L36.8138 64.3878L36.5929 64.3226C36.5088 64.3226 36.2984 64.4529 36.1617 64.6484L34.9205 66.4512C34.8226 66.5895 34.6943 66.702 34.5462 66.7794C34.3982 66.8568 34.2345 66.8969 34.0685 66.8964Z" fill="#3F3B3A"/>
<path d="M54.6964 110C54.4174 110 54.1499 109.886 53.9526 109.682C53.7554 109.478 53.6445 109.202 53.6445 108.914V73.0759C53.6445 72.7878 53.7554 72.5116 53.9526 72.308C54.1499 72.1043 54.4174 71.9899 54.6964 71.9899C54.9754 71.9899 55.2429 72.1043 55.4402 72.308C55.6374 72.5116 55.7482 72.7878 55.7482 73.0759V108.914C55.7482 109.202 55.6374 109.478 55.4402 109.682C55.2429 109.886 54.9754 110 54.6964 110Z" fill="#3F3B3A"/>
<path d="M48.3848 110C48.1215 110.001 47.8673 109.9 47.6726 109.717C47.4778 109.534 47.3566 109.282 47.3329 109.012L45.3134 85.0219H45.1451L43.1255 109.012C43.1131 109.154 43.0736 109.293 43.0092 109.42C42.9449 109.547 42.857 109.659 42.7505 109.751C42.644 109.843 42.5211 109.912 42.3887 109.955C42.2564 109.997 42.1171 110.013 41.979 110C41.8409 109.987 41.7066 109.946 41.5837 109.88C41.4608 109.813 41.3519 109.723 41.263 109.613C41.1741 109.503 41.107 109.376 41.0657 109.239C41.0243 109.103 41.0094 108.959 41.0218 108.816L43.1255 83.8381C43.1492 83.5674 43.2704 83.3156 43.4652 83.1326C43.6599 82.9497 43.9141 82.8488 44.1774 82.8499H46.2811C46.5444 82.8488 46.7985 82.9497 46.9933 83.1326C47.188 83.3156 47.3092 83.5674 47.3329 83.8381L49.4366 108.816C49.4496 108.959 49.4352 109.103 49.394 109.24C49.3528 109.377 49.2858 109.504 49.1969 109.614C49.1079 109.724 48.9987 109.815 48.8755 109.881C48.7524 109.947 48.6178 109.988 48.4795 110H48.3848Z" fill="#3F3B3A"/>
<path d="M35.7628 110C35.4838 110 35.2163 109.886 35.019 109.682C34.8218 109.478 34.7109 109.202 34.7109 108.914V73.0759C34.7109 72.7878 34.8218 72.5116 35.019 72.308C35.2163 72.1043 35.4838 71.9899 35.7628 71.9899C36.0418 71.9899 36.3093 72.1043 36.5066 72.308C36.7038 72.5116 36.8146 72.7878 36.8146 73.0759V108.914C36.8146 109.202 36.7038 109.478 36.5066 109.682C36.3093 109.886 36.0418 110 35.7628 110Z" fill="#3F3B3A"/>
<path d="M57.7043 73.1627H49.889C48.9277 73.1113 47.9767 72.9324 47.0595 72.6306H46.9228L40.8747 73.141H30.6401C29.9779 73.1502 29.3211 73.0157 28.7123 72.7463C28.1035 72.4769 27.5563 72.0786 27.1059 71.5772C26.79 71.2179 26.5538 70.7917 26.4139 70.3283C26.274 69.865 26.2338 69.3758 26.296 68.8947L28.4838 56.3079C29.2833 52.4418 33.4486 49.1837 37.6244 49.1837H38.9182C39.1205 49.1842 39.3185 49.2449 39.4882 49.3585C39.658 49.4722 39.7924 49.6339 39.8754 49.8245L45.2293 62.2158L50.5517 49.8788C50.6286 49.673 50.7644 49.4962 50.941 49.372C51.1177 49.2479 51.3267 49.1822 51.5404 49.1837H52.2872C54.2174 49.2296 56.0735 49.9594 57.5443 51.2506C59.0151 52.5418 60.0112 54.3159 60.3655 56.2754L62.0589 68.9165C62.1365 69.3693 62.1154 69.8343 61.9972 70.2776C61.8789 70.7209 61.6664 71.1315 61.3752 71.4794C60.9167 72.0162 60.3513 72.4444 59.7178 72.7349C59.0842 73.0255 58.3974 73.1714 57.7043 73.1627ZM46.7545 70.2088C47.7602 70.6384 48.825 70.9023 49.9101 70.9907H57.7253C58.0995 70.9902 58.4697 70.9109 58.8133 70.7578C59.1569 70.6047 59.4667 70.381 59.7238 70.1002C59.8244 69.9901 59.898 69.8567 59.9383 69.7112C59.9785 69.5657 59.9844 69.4123 59.9552 69.264L58.2828 56.6446C58.0136 55.1911 57.2733 53.8756 56.1836 52.9143C55.0939 51.9531 53.7197 51.4034 52.2872 51.3558H52.2241L47.1121 63.0629C46.938 63.4248 46.6695 63.7293 46.3369 63.9422C46.0043 64.1552 45.6207 64.2681 45.2293 64.2684C44.8498 64.2684 44.4774 64.1624 44.1515 63.9616C43.8256 63.7609 43.5583 63.4728 43.3781 63.128L38.2345 51.3558H37.6244C34.4689 51.3558 31.145 53.8644 30.5875 56.7098L28.3997 69.2531C28.3746 69.4192 28.3872 69.589 28.4365 69.7492C28.4858 69.9094 28.5704 70.0555 28.6837 70.1762C28.9376 70.4412 29.241 70.65 29.5756 70.79C29.9101 70.93 30.2687 70.9983 30.6296 70.9907H40.78L43.7567 70.7409C41.4111 69.2097 37.2247 66.8748 33.964 67.2114C33.7981 67.2291 33.6305 67.2059 33.4751 67.1436C33.3196 67.0813 33.1808 66.9817 33.0699 66.853C32.9593 66.7248 32.8797 66.5714 32.8376 66.4052C32.7956 66.2391 32.7923 66.0651 32.828 65.8974L33.985 60.4673C34.045 60.1793 34.2133 59.9277 34.453 59.7678C34.6927 59.6079 34.9841 59.5529 35.263 59.6148C35.542 59.6767 35.7857 59.8506 35.9406 60.098C36.0954 60.3455 36.1487 60.6463 36.0887 60.9343L35.2052 65.0611C40.233 65.3326 45.9446 69.5898 46.7545 70.2088Z" fill="#3F3B3A"/>
</g>
<defs>
<clipPath id="clip0">
<rect width="53.507" height="44.2142" fill="white" transform="translate(76.4922)"/>
</clipPath>
<clipPath id="clip1">
<rect width="89.4074" height="80.3644" fill="white" transform="translate(0 29.6356)"/>
</clipPath>
</defs>
</svg>
