<svg width="130" height="110" viewBox="0 0 130 110" fill="none" xmlns="http://www.w3.org/2000/svg">
<g clip-path="url(#clip0)">
<path d="M37.5491 57.0282C37.1609 56.5978 36.6926 56.2619 36.1752 56.0427C35.6578 55.8235 35.1032 55.7261 34.5483 55.7569H27.7769C26.8328 55.7961 25.9115 55.4364 25.2079 54.7537C24.5043 54.071 24.0734 53.1188 24.0064 52.0985C24.0064 49.9373 30.3472 45.4172 31.678 44.4991C31.678 41.5469 31.678 38.5806 31.678 38.0156C31.6383 37.7666 31.6492 37.5112 31.7101 37.2672C31.7709 37.0233 31.8802 36.7966 32.0303 36.6031C32.4742 36.2532 33.0254 36.1015 33.5698 36.1793H39.2713L37.4187 34.0464C36.9808 33.5391 36.4262 33.1671 35.8118 32.9685C35.1973 32.7699 34.5451 32.7519 33.9221 32.9164L7.17578 39.2021V56.1524C7.22201 56.1045 7.28171 56.0746 7.34539 56.0676H8.32391C8.41866 56.0736 8.50757 56.1191 8.57181 56.1948C9.8765 57.692 13.621 61.6189 15.4606 61.6189H38.9451C38.9694 59.9623 38.4776 58.3451 37.5491 57.0282Z" fill="white"/>
<path d="M6.52261 36.7866H1.4082V60.2769H6.52261V36.7866Z" fill="#5EB4E7"/>
<path d="M90.2333 62.4382C90.1511 62.4385 90.0718 62.4052 90.0114 62.3449C89.9509 62.2847 89.9137 62.202 89.9071 62.1133C89.8846 60.9476 90.0479 59.7865 90.3898 58.6809C89.3193 58.5623 88.3272 58.0191 87.6045 57.1558C86.8819 56.2926 86.4798 55.1704 86.4757 54.0054C86.4757 54.0054 86.4757 54.0054 86.4757 53.9207L86.7888 53.8218H86.4888C86.4824 53.7797 86.4824 53.7368 86.4888 53.6947C86.4875 52.4853 86.9164 51.322 87.6866 50.4461C88.4568 49.5702 89.5089 49.0491 90.6247 48.991C91.7232 49.0197 92.7878 49.4089 93.6777 50.1068C93.8864 50.2622 94.0821 50.3328 94.1865 50.2764C94.2909 50.2198 94.3822 50.008 94.3952 49.5277C94.4083 49.0475 94.3952 46.9993 94.3952 44.824C94.3952 42.903 94.3952 40.8124 94.3952 39.2869C94.3952 37.4506 94.1473 37.4506 92.112 37.4083C90.0767 37.3659 81.4265 37.4083 81.3352 37.4083C81.291 37.4076 81.2474 37.3973 81.2071 37.3779C81.1667 37.3584 81.1304 37.3303 81.1004 37.2953C81.0723 37.2555 81.052 37.2099 81.0408 37.1613C81.0296 37.1127 81.0276 37.0622 81.0351 37.0128V36.6879C81.0406 36.6034 81.0729 36.5236 81.1265 36.4619C82.1318 35.5258 82.7631 34.2044 82.8878 32.7752C82.8408 31.7435 82.4279 30.7711 81.7353 30.0607C81.0426 29.3503 80.1235 28.9565 79.1694 28.9614H79.0129C78.0608 28.8764 77.1151 29.1914 76.3718 29.8409C75.6285 30.4905 75.1446 31.4249 75.0205 32.4503C75.0522 33.8658 75.5737 35.2168 76.4817 36.2359C76.5315 36.2989 76.5593 36.3789 76.56 36.4619V37.0128C76.56 37.1064 76.5257 37.1962 76.4645 37.2625C76.4033 37.3287 76.3204 37.3659 76.2338 37.3659L64.6742 37.2811C63.3695 37.2811 63.3695 37.2811 63.3695 38.6937C63.3695 41.9425 63.3695 48.7932 63.3043 49.895C63.3043 50.4176 63.4087 50.5165 63.4087 50.5165C63.4087 50.5165 63.5391 50.5165 63.9306 50.234C64.8853 49.4088 66.0624 48.9427 67.2836 48.9062C68.3902 48.971 69.4321 49.4913 70.1961 50.3604C70.9601 51.2295 71.3884 52.3819 71.3934 53.5817C71.4006 53.6142 71.4006 53.648 71.3934 53.6805V53.7653C71.3934 53.7653 71.3934 53.85 71.3934 53.8783C71.4015 55.0887 70.9769 56.2556 70.2085 57.1349C69.44 58.0142 68.3874 58.5378 67.2706 58.5961C66.051 58.5598 64.8768 58.088 63.9306 57.2542L63.787 57.1271C63.636 56.9952 63.4692 56.886 63.2913 56.8022C63.2913 56.8022 63.1738 56.9435 63.1738 57.6073C63.1738 59.0199 63.1738 65.6729 63.1738 68.6392C63.1738 69.2889 63.1738 69.642 63.3826 69.7974C63.6133 69.9621 63.8924 70.0276 64.1654 69.981C65.2483 69.981 75.6598 70.0658 76.1034 70.0658C76.1476 70.0664 76.1911 70.0768 76.2315 70.0962C76.2719 70.1156 76.3082 70.1437 76.3382 70.1788C76.3946 70.2498 76.4268 70.3395 76.4296 70.4331V70.9133C76.4213 70.997 76.3894 71.0759 76.3382 71.1393C75.3895 72.1198 74.8165 73.4512 74.7334 74.8684C74.8199 75.9088 75.2766 76.8721 76.0069 77.5548C76.7373 78.2374 77.6842 78.586 78.6475 78.5268H78.8041C79.7675 78.586 80.7143 78.2374 81.4447 77.5548C82.1751 76.8721 82.6317 75.9088 82.7182 74.8684C82.6351 73.4512 82.0622 72.1198 81.1134 71.1393C81.0612 71.1265 81.0131 71.0988 80.9741 71.059C80.9351 71.0193 80.9066 70.969 80.8916 70.9133V70.4613C80.8908 70.367 80.9235 70.276 80.9829 70.2071C81.0131 70.1731 81.0498 70.1467 81.0903 70.1296C81.1309 70.1126 81.1744 70.1052 81.2178 70.1082L92.5034 70.1788C94.0691 70.1788 94.2126 69.8115 94.2517 68.1871C94.33 65.0655 94.33 63.7942 94.2517 62.5371C94.2443 62.4951 94.2443 62.4519 94.2517 62.4099L90.2333 62.4382Z" fill="#FFC700"/>
<path d="M62.5476 57.6073C62.5476 57.0846 62.5476 56.3784 63.0434 56.1947C63.5392 56.0111 63.9175 56.3642 64.2176 56.6185L64.3481 56.7315C65.1669 57.4207 66.1685 57.8069 67.2054 57.8333C68.1525 57.7716 69.0413 57.3176 69.6875 56.5654C70.3337 55.8132 70.6876 54.8206 70.6759 53.7934C70.7013 52.7604 70.3548 51.757 69.7097 50.9953C69.0646 50.2336 68.1713 49.7732 67.2184 49.7112C66.1378 49.7446 65.0972 50.1615 64.2568 50.8978C63.9306 51.152 63.4609 51.4769 63.0564 51.2509C62.652 51.0249 62.5867 50.248 62.5867 49.9938C62.5867 48.9061 62.5867 42.1542 62.652 38.8631C62.652 38.8631 62.652 38.7924 62.652 38.7501C62.652 37.3375 62.652 37.3375 61.3473 37.3375L51.0141 37.0127C50.5444 37.0127 50.4531 37.1257 50.4531 37.1257C50.4531 37.1257 50.4531 37.2669 50.714 37.6766C51.4786 38.7187 51.905 40.0043 51.9274 41.335C51.8738 42.533 51.3971 43.6629 50.5957 44.491C49.7944 45.3191 48.7297 45.7822 47.6219 45.7844H47.3479C46.2164 45.7927 45.1264 45.3242 44.3083 44.478C43.4902 43.6318 43.0081 42.4743 42.9641 41.2502C42.9986 39.9789 43.4052 38.7522 44.1253 37.7472L44.2297 37.5918C44.321 37.4788 44.5558 37.1539 44.5428 37.0409C44.3007 36.9664 44.0454 36.9567 43.7991 37.0127H33.6094C32.9962 37.0127 32.6831 37.0127 32.5396 37.2245C32.3817 37.477 32.3209 37.786 32.37 38.0862C32.37 39.2586 32.2917 50.5305 32.2917 51.0108C32.2877 51.1067 32.2504 51.1975 32.1873 51.265C32.1258 51.3241 32.0476 51.3589 31.9655 51.3639H31.5219C31.4721 51.3489 31.4267 51.3202 31.3901 51.2806C31.3535 51.241 31.327 51.1919 31.3132 51.1379L30.713 50.5305C29.8388 49.6124 28.9386 48.666 27.9992 48.666C27.9282 48.6633 27.8604 48.6334 27.8079 48.5817C27.7553 48.53 27.7214 48.4597 27.7122 48.3835C26.003 49.796 24.6462 51.2791 24.6722 52.0278C24.7324 52.8658 25.0916 53.6456 25.6736 54.2019C26.2557 54.7583 27.0149 55.0474 27.7905 55.0082H34.5749C35.2181 54.9797 35.8596 55.0983 36.4576 55.3563C37.0556 55.6143 37.5966 56.0059 38.0454 56.5055C39.1821 58.0798 39.7524 60.0474 39.6502 62.0426C39.6502 62.0865 39.642 62.1299 39.6261 62.1703C39.6103 62.2106 39.587 62.2471 39.5577 62.2774C39.5285 62.3078 39.4938 62.3314 39.4559 62.3469C39.418 62.3624 39.3775 62.3694 39.337 62.3675H32.2525C32.2525 63.3845 32.2525 67.0005 32.2525 68.6532C32.2525 70.3058 32.5918 70.5177 34.0922 70.5601C37.0538 70.6448 42.1552 70.6448 43.225 70.5601C43.7078 70.5601 43.9426 70.433 43.9948 70.32C44.047 70.207 43.9948 69.981 43.8252 69.6985C43.2301 68.7411 42.9038 67.6176 42.8858 66.4638C42.946 65.2646 43.4287 64.1361 44.2346 63.3109C45.0405 62.4857 46.1082 62.0267 47.2174 62.0285H47.2957L47.387 62.3675V62.0426H47.5044C48.6329 62.0609 49.7103 62.5553 50.5071 63.4207C51.3039 64.286 51.7573 65.4538 51.7708 66.6757C51.7442 67.865 51.3848 69.0176 50.7401 69.981C50.6766 70.0536 50.6295 70.141 50.6023 70.2366C50.5751 70.3321 50.5687 70.4332 50.5835 70.5318C50.5835 70.6307 50.8314 70.7437 51.275 70.7578H55.711H60.7341C62.4432 70.7578 62.4302 70.4895 62.4693 68.2718C62.4693 68.2718 62.4693 68.2718 62.4693 68.1871C62.5085 65.0654 62.5345 58.9915 62.5476 57.6073Z" fill="#D9D9D9"/>
<path d="M128.148 36.7866H123.033V60.2769H128.148V36.7866Z" fill="#D9D9D9"/>
<path d="M95.5682 32.9023C94.9487 32.7522 94.3037 32.7801 93.6971 32.9832C93.0906 33.1864 92.5438 33.5578 92.1108 34.0606L89.7754 36.6737H92.1369C94.1722 36.6737 95.0986 36.6737 95.0725 39.2586C95.0725 40.1909 95.0725 41.3492 95.0725 42.5498C95.1064 42.5549 95.139 42.5676 95.1682 42.5871C95.1974 42.6065 95.2226 42.6323 95.2421 42.6628C96.9773 43.8635 105.68 49.9797 105.536 52.155C105.456 53.164 105.019 54.1006 104.317 54.7692C103.614 55.4377 102.7 55.7866 101.766 55.7428H94.9942C94.4383 55.7138 93.8832 55.8134 93.3657 56.0351C92.8483 56.2567 92.3804 56.5953 91.9934 57.0282C91.0272 58.353 90.5195 60.002 90.5582 61.6895H114.043C115.882 61.6895 119.64 57.7627 120.932 56.2654C120.961 56.2284 120.997 56.1981 121.037 56.1763C121.077 56.1544 121.121 56.1415 121.166 56.1383H122.145C122.213 56.1421 122.278 56.1722 122.328 56.223V39.2728L95.5682 32.9023Z" fill="white"/>
<path d="M7.11098 40.2756C6.93964 40.2951 6.76644 40.2779 6.60126 40.2249C6.43608 40.1719 6.28217 40.0842 6.14829 39.9668C5.87792 39.7297 5.70562 39.386 5.66929 39.0114C5.63295 38.6368 5.73557 38.2619 5.95455 37.9692C6.17354 37.6765 6.49096 37.4899 6.83699 37.4506L33.9225 31.1366C34.7935 30.9485 35.6942 30.9999 36.5421 31.2862C37.39 31.5724 38.1581 32.0844 38.776 32.7751L41.0461 35.4024C41.2164 35.6834 41.2885 36.0209 41.2495 36.3542C41.2106 36.6876 41.0632 36.995 40.8338 37.2213C40.6043 37.4476 40.3079 37.5779 39.9977 37.5888C39.6875 37.5998 39.3839 37.4907 39.1413 37.2811L36.9233 34.7103C36.6043 34.3423 36.2001 34.0735 35.7527 33.9319C35.3053 33.7903 34.831 33.7811 34.3791 33.9052L7.38496 40.2474L7.11098 40.2756Z" fill="#383F4E"/>
<path d="M39.5465 63.4268L15.6575 63.3844C13.1525 63.3844 9.49932 59.5706 7.95978 57.8332H7.56837C7.22234 57.8332 6.89049 57.6844 6.64581 57.4195C6.40113 57.1546 6.26367 56.7953 6.26367 56.4207C6.26367 56.0461 6.40113 55.6868 6.64581 55.4219C6.89049 55.157 7.22234 55.0082 7.56837 55.0082H8.55994C8.73883 55.0088 8.9157 55.0492 9.07955 55.127C9.24339 55.2048 9.39072 55.3182 9.51237 55.4602C11.6129 57.918 14.6007 60.5594 15.6836 60.5594H38.1635C38.0602 59.5222 37.6793 58.5403 37.0676 57.7343C36.7692 57.4127 36.4118 57.1622 36.0186 56.9992C35.6253 56.8362 35.2049 56.7643 34.7844 56.7879H27.9999C26.8008 56.8271 25.6346 56.3596 24.7482 55.4843C23.8619 54.6091 23.3248 53.3947 23.2508 52.0984C23.1856 49.7112 27.6477 46.1375 31.4052 43.6232C31.55 43.524 31.7114 43.4566 31.8802 43.4248C32.0491 43.3931 32.222 43.3977 32.3892 43.4384C32.5564 43.4791 32.7146 43.555 32.8547 43.6618C32.9947 43.7687 33.114 43.9044 33.2057 44.0611C33.2974 44.2179 33.3596 44.3926 33.3889 44.5754C33.4182 44.7582 33.414 44.9454 33.3764 45.1265C33.3388 45.3075 33.2687 45.4787 33.17 45.6304C33.0713 45.782 32.946 45.9112 32.8012 46.0104C29.3438 48.3128 26.0951 51.1379 25.8472 52.0984C25.9273 52.6435 26.1924 53.1366 26.5905 53.4814C26.9886 53.8262 27.4911 53.9979 27.9999 53.9629H34.7844C35.5617 53.929 36.3369 54.0739 37.0588 54.388C37.7807 54.7021 38.4329 55.1782 38.9724 55.7851C40.2818 57.5754 40.9491 59.8179 40.8512 62.099C40.8312 62.4588 40.685 62.7966 40.4424 63.0435C40.1999 63.2903 39.8794 63.4275 39.5465 63.4268Z" fill="#383F4E"/>
<path d="M7.07146 62.0002H1.3047C0.95867 62.0002 0.626815 61.8514 0.382137 61.5865C0.137459 61.3216 0 60.9623 0 60.5877C0 60.2131 0.137459 59.8538 0.382137 59.5889C0.626815 59.324 0.95867 59.1752 1.3047 59.1752H5.76676V37.8037H1.3047C0.95867 37.8037 0.626815 37.6549 0.382137 37.39C0.137459 37.1251 0 36.7658 0 36.3912C0 36.0165 0.137459 35.6573 0.382137 35.3924C0.626815 35.1275 0.95867 34.9786 1.3047 34.9786H7.07146C7.41749 34.9786 7.74934 35.1275 7.99402 35.3924C8.2387 35.6573 8.37615 36.0165 8.37615 36.3912V60.5877C8.37615 60.9623 8.2387 61.3216 7.99402 61.5865C7.74934 61.8514 7.41749 62.0002 7.07146 62.0002Z" fill="#383F4E"/>
<path d="M61.0206 72.4812H60.9423H55.854H51.4572C51.0354 72.5236 50.6113 72.4327 50.2362 72.2197C49.8611 72.0066 49.551 71.6804 49.3435 71.2805C49.1697 70.8921 49.0996 70.4588 49.1411 70.0295C49.1826 69.6003 49.3341 69.1921 49.5784 68.851C50.0457 68.1885 50.3062 67.3821 50.3221 66.5486C50.2658 65.8043 49.9499 65.1112 49.4385 64.6101C48.9272 64.1089 48.2588 63.8374 47.5692 63.8507H47.4909C46.791 63.8225 46.1079 64.087 45.5833 64.5892C45.0586 65.0915 44.7326 65.7931 44.6727 66.5486C44.6893 67.3708 44.9349 68.1684 45.3773 68.8369C45.614 69.1742 45.759 69.5765 45.7959 69.9983C45.8327 70.42 45.7601 70.8446 45.586 71.224C45.3601 71.6159 45.0377 71.9318 44.6552 72.1364C44.2726 72.341 43.845 72.4262 43.4202 72.3823C42.2851 72.3823 37.1968 72.3823 34.196 72.3823C32.1346 72.3823 30.7516 71.676 30.7777 68.7097C30.7777 66.7605 30.8429 63.5399 30.8429 63.5399H33.4523C33.4523 63.5399 33.4523 66.7463 33.3871 68.6674C33.3605 68.9208 33.3605 69.1767 33.3871 69.4301C33.663 69.4803 33.9424 69.504 34.2221 69.5008C36.7532 69.5855 40.9543 69.5855 42.7157 69.5714C42.2556 68.6313 42.0138 67.5842 42.0111 66.5203C42.0709 65.0584 42.6447 63.6765 43.6149 62.6576C44.5851 61.6387 45.8784 61.0599 47.2299 61.0397C47.3723 61.0117 47.5181 61.0117 47.6605 61.0397C49.0344 61.0498 50.3515 61.6346 51.3363 62.6719C52.3212 63.7091 52.8974 65.1185 52.9445 66.6051C52.9357 67.6653 52.6895 68.7074 52.2269 69.642H55.8409H60.9423C61.1679 69.6655 61.3951 69.6655 61.6207 69.642C61.6522 69.1718 61.6522 68.6997 61.6207 68.2295C61.6366 67.8604 61.7792 67.511 62.0205 67.2498C62.2618 66.9885 62.5845 66.8342 62.9254 66.817C63.2715 66.817 63.6033 66.9658 63.848 67.2307C64.0927 67.4956 64.2301 67.8549 64.2301 68.2295C64.2954 70.3483 64.2562 72.4812 61.0206 72.4812Z" fill="#383F4E"/>
<path d="M32.1864 52.282H31.7036C31.3893 52.2742 31.0882 52.1438 30.8556 51.9148L30.2424 51.2791C29.5378 50.5305 28.7028 49.7254 28.207 49.7254C27.861 49.7254 27.5292 49.5765 27.2845 49.3116C27.0398 49.0467 26.9023 48.6875 26.9023 48.3128C26.9023 47.9382 27.0398 47.5789 27.2845 47.314C27.5292 47.0491 27.861 46.9003 28.207 46.9003C29.2101 46.954 30.1648 47.3834 30.9078 48.1151C30.9078 44.5838 30.9078 38.7924 30.9078 38.0014C30.876 37.6198 30.9163 37.2351 31.0262 36.8709C31.1361 36.5066 31.3133 36.1704 31.5471 35.8826C31.8522 35.5999 32.2075 35.3877 32.5912 35.2589C32.9748 35.1302 33.3787 35.0877 33.7781 35.134H43.9808C44.4103 35.0838 44.8441 35.1643 45.2336 35.3665C45.6231 35.5686 45.9529 35.8843 46.1858 36.2781C46.3251 36.6853 46.3525 37.1276 46.2645 37.5512C46.1765 37.9749 45.9769 38.3619 45.69 38.6653C45.1296 39.3882 44.8082 40.293 44.7767 41.2361C44.83 41.9916 45.1496 42.696 45.6693 43.2034C46.1891 43.7109 46.8691 43.9826 47.5687 43.9623H47.647C48.3561 43.9981 49.0506 43.736 49.5855 43.2306C50.1203 42.7252 50.4542 42.0157 50.5174 41.2502C50.4689 40.3102 50.1392 39.4128 49.578 38.6936C49.3017 38.3796 49.1153 37.9859 49.0412 37.5598C48.9671 37.1337 49.0085 36.6934 49.1605 36.2923C49.3607 35.9151 49.6596 35.6105 50.0195 35.417C50.3794 35.2234 50.7841 35.1495 51.1828 35.2046C52.2004 35.2046 58.5412 35.2046 61.5551 35.2046C63.7209 35.2046 64.4124 36.0098 64.4124 38.4252C64.4124 38.7998 64.2749 39.1591 64.0302 39.424C63.7856 39.6889 63.4537 39.8377 63.1077 39.8377C62.7617 39.8377 62.4298 39.6889 62.1851 39.424C61.9404 39.1591 61.803 38.7998 61.803 38.4252V38.1003H61.516H52.2657C52.7869 39.0908 53.0653 40.2092 53.0746 41.3491C53.0181 42.8149 52.4463 44.2018 51.476 45.226C50.5058 46.2501 49.2107 46.834 47.8558 46.8579C47.73 46.872 47.6032 46.872 47.4774 46.8579H47.3339C45.9737 46.837 44.673 46.2504 43.7015 45.2196C42.7299 44.1887 42.1619 42.7927 42.1151 41.3208C42.1517 40.1351 42.4757 38.9806 43.0545 37.9732H33.8433H33.5824C33.5824 39.1738 33.5041 50.4457 33.5041 50.926C33.5041 51.3006 33.3666 51.6599 33.122 51.9248C32.8773 52.1897 32.5454 52.3385 32.1994 52.3385L32.1864 52.282Z" fill="#383F4E"/>
<path d="M78.791 80.25H78.5953C77.2441 80.2453 75.9453 79.6832 74.9636 78.678C73.9818 77.6729 73.391 76.3004 73.3113 74.84C73.3171 73.7632 73.5824 72.7066 74.0811 71.7748C70.8454 71.7748 65.17 71.6901 64.4002 71.7042C64.0477 71.7386 63.6924 71.6949 63.356 71.5759C63.0195 71.457 62.709 71.2651 62.4432 71.0121C62.1814 70.6821 61.9849 70.2975 61.866 69.882C61.747 69.4666 61.7081 69.0291 61.7517 68.5967C61.7517 65.6304 61.7517 59.0197 61.7517 57.5648C61.703 57.0992 61.7748 56.6281 61.9592 56.204C62.1435 55.78 62.433 55.4198 62.7954 55.1636C63.1745 55.0114 63.5864 54.9825 63.9804 55.0804C64.3745 55.1782 64.7335 55.3986 65.0134 55.7144C65.6861 56.312 66.5188 56.6587 67.388 56.7032C68.0846 56.6386 68.732 56.2881 69.1977 55.7235C69.6635 55.1589 69.9122 54.423 69.893 53.6663V53.5957C69.919 52.8379 69.6747 52.0984 69.2108 51.5304C68.7468 50.9624 68.0988 50.6094 67.401 50.5446C66.533 50.5707 65.6976 50.9087 65.0265 51.5051C64.7401 51.8106 64.3762 52.0168 63.9811 52.0973C63.5861 52.1778 63.1778 52.129 62.8085 51.9571C62.4593 51.7322 62.1798 51.3998 62.0056 51.0024C61.8313 50.605 61.7702 50.1605 61.8299 49.7253C61.8299 48.6236 61.83 41.7728 61.9082 38.5099C61.9082 36.1651 62.6519 35.4024 64.8568 35.4024H74.3159C73.832 34.4315 73.5892 33.3412 73.6114 32.2383C73.7587 30.7966 74.4039 29.4684 75.4177 28.5201C76.4316 27.5717 77.7391 27.0734 79.078 27.125H79.5869H79.7304C81.0841 27.1828 82.3656 27.8014 83.3101 28.8529C84.2546 29.9044 84.79 31.3084 84.8057 32.7751C84.7673 33.7671 84.5125 34.7352 84.062 35.6001H92.4512C94.3821 35.6001 96.3653 35.6001 96.3653 39.2727C96.3653 40.7699 96.3653 42.8322 96.3653 44.7391C96.3653 46.9427 96.3653 48.9767 96.3653 49.5417C96.4015 49.9944 96.3176 50.4489 96.1234 50.8517C95.9293 51.2545 95.633 51.589 95.2693 51.8159C94.9162 51.9889 94.5258 52.0527 94.1413 52.0004C93.7567 51.948 93.393 51.7815 93.0905 51.5193C92.4661 51.0284 91.7217 50.7483 90.9508 50.7141C90.2565 50.7786 89.6109 51.1271 89.1456 51.6886C88.6802 52.2502 88.4299 52.9827 88.4458 53.7369V53.8217C88.4325 54.5376 88.6612 55.2341 89.0888 55.7803C89.5165 56.3265 90.1136 56.6848 90.7681 56.788C91.1142 56.788 91.446 56.9368 91.6907 57.2017C91.9354 57.4666 92.0728 57.8259 92.0728 58.2005C92.0728 58.5751 91.9354 58.9344 91.6907 59.1993C91.446 59.4642 91.1142 59.613 90.7681 59.613C89.4178 59.5483 88.1414 58.9271 87.2003 57.8767C86.2592 56.8263 85.7246 55.4262 85.7059 53.9629C85.699 53.8878 85.699 53.8121 85.7059 53.7369L87.0106 53.5957H85.7059C85.6991 53.5064 85.6991 53.4166 85.7059 53.3273C85.7484 51.8696 86.3022 50.4842 87.2547 49.4529C88.2073 48.4217 89.4869 47.822 90.8334 47.7761C91.8128 47.7976 92.7738 48.0685 93.6385 48.5671C93.6385 47.6489 93.6385 46.1799 93.6385 44.612C93.6385 42.7051 93.6385 40.6287 93.6385 39.1173C93.6596 38.873 93.6596 38.6271 93.6385 38.3828C93.3645 38.3828 92.7904 38.3828 92.3338 38.3828C90.2854 38.3828 81.57 38.3828 81.57 38.3828C81.3911 38.3822 81.2142 38.3417 81.0504 38.264C80.8866 38.1862 80.7392 38.0728 80.6176 37.9308C80.4956 37.7869 80.4024 37.6173 80.344 37.4325C80.2857 37.2477 80.2633 37.0519 80.2784 36.8573V36.5183C80.3032 36.1684 80.4474 35.8412 80.6828 35.6001C81.4953 34.8539 82.0325 33.816 82.1963 32.6762C82.1331 31.9069 81.7979 31.1938 81.2606 30.6858C80.7233 30.1778 80.0255 29.9142 79.3129 29.95H79.2346C78.5374 29.8777 77.8406 30.0917 77.2824 30.5496C76.7241 31.0075 76.3452 31.6758 76.2208 32.4219C76.2843 33.5679 76.7185 34.653 77.4472 35.4871C77.6493 35.743 77.7603 36.0686 77.7603 36.4053V36.9138C77.7603 37.2884 77.6228 37.6477 77.3782 37.9126C77.1335 38.1775 76.8016 38.3263 76.4556 38.3263L64.896 38.2415H64.5307V38.5382C64.5307 41.1796 64.5307 46.1658 64.4654 48.553C65.3837 47.9993 66.4153 47.7031 67.4662 47.6913C68.8212 47.749 70.1041 48.3671 71.0507 49.4182C71.9973 50.4694 72.5356 51.8735 72.5546 53.3414C72.5614 53.4166 72.5614 53.4923 72.5546 53.5674V53.7934C72.5546 53.7934 72.5546 53.9205 72.5546 53.9912C72.5126 55.4455 71.9629 56.8286 71.0162 57.8614C70.0694 58.8943 68.7962 59.5 67.4532 59.5565C66.394 59.5366 65.357 59.2255 64.4393 58.6525C64.4393 61.0679 64.4393 66.1389 64.4393 68.6249V68.9074C65.5483 68.9074 75.9598 68.9922 76.4034 69.0063C76.7494 69.0063 77.0813 69.1551 77.326 69.42C77.5707 69.6849 77.7081 70.0442 77.7081 70.4188V70.9132C77.6942 71.2504 77.5693 71.5711 77.3558 71.8172C76.6069 72.6279 76.1451 73.6979 76.0511 74.84C76.1482 75.5874 76.5012 76.2681 77.0402 76.7469C77.5791 77.2257 78.2646 77.4677 78.9606 77.4249H79.0519C79.748 77.4677 80.4335 77.2257 80.9724 76.7469C81.5113 76.2681 81.8644 75.5874 81.9614 74.84C81.8686 73.6976 81.4066 72.6272 80.6567 71.8172C80.4481 71.5691 80.3278 71.2486 80.3175 70.9132V70.4612C80.3113 70.2716 80.3405 70.0825 80.4032 69.9054C80.466 69.7282 80.5611 69.5665 80.6828 69.43C80.7988 69.2822 80.9458 69.1666 81.1115 69.0929C81.2772 69.0192 81.4568 68.9895 81.6352 69.0063C81.6352 69.0063 91.1204 69.0063 92.9078 69.091C93.1425 69.1043 93.3777 69.1043 93.6124 69.091C93.6354 68.7902 93.6354 68.4878 93.6124 68.187C93.6906 65.0653 93.6906 63.8082 93.6124 62.5369C93.6037 62.1623 93.7329 61.7993 93.9714 61.5278C94.21 61.2563 94.5384 61.0985 94.8844 61.0891C95.2305 61.0797 95.5658 61.2196 95.8166 61.4778C96.0674 61.7361 96.2131 62.0917 96.2218 62.4663C96.2218 63.7376 96.2218 65.0371 96.2218 68.2153C96.2218 70.4612 95.6086 71.9161 92.8295 71.9302L83.8271 71.8596C84.296 72.7768 84.5471 73.8058 84.5578 74.8541C84.4789 76.3024 83.8972 77.6649 82.9293 78.6682C81.9614 79.6716 80.6789 80.2417 79.339 80.2641H78.9737L78.791 80.25Z" fill="#383F4E"/>
<path d="M122.889 40.2757H122.615L95.5946 33.8911C95.126 33.7714 94.6362 33.7908 94.1769 33.9475C93.7176 34.1041 93.3059 34.3921 92.9853 34.781L90.3759 37.7331C90.1354 38.0029 89.8058 38.1581 89.4596 38.1647C89.1133 38.1714 88.7789 38.0288 88.5297 37.7684C88.2806 37.5081 88.1372 37.1512 88.1311 36.7764C88.1249 36.4016 88.2566 36.0394 88.4971 35.7697L91.1848 32.7752C91.8104 32.0708 92.5916 31.5507 93.4545 31.264C94.3174 30.9773 95.2336 30.9334 96.1165 31.1366L123.163 37.4789C123.509 37.5182 123.826 37.7048 124.045 37.9975C124.264 38.2902 124.367 38.6651 124.331 39.0397C124.294 39.4143 124.122 39.758 123.852 39.9951C123.581 40.2322 123.235 40.3433 122.889 40.3039V40.2757Z" fill="#383F4E"/>
<path d="M90.4547 63.4269C90.1197 63.4273 89.7974 63.2883 89.5545 63.0384C89.3116 62.7886 89.1668 62.4472 89.15 62.085C89.0522 59.8039 89.7194 57.5613 91.0288 55.771C91.5725 55.1631 92.2294 54.6874 92.9561 54.3757C93.6827 54.0639 94.4623 53.9232 95.243 53.963H102.014C102.517 53.9952 103.013 53.8258 103.408 53.4871C103.803 53.1484 104.068 52.664 104.154 52.1267C103.567 50.8554 98.8178 46.971 94.6167 44.0612C94.3457 43.8498 94.1598 43.5339 94.0975 43.1785C94.0352 42.8232 94.1012 42.4555 94.2819 42.1513C94.4625 41.847 94.7441 41.6294 95.0685 41.5432C95.393 41.4571 95.7356 41.5089 96.0258 41.6882C103.215 46.6744 106.829 50.1633 106.776 52.0984C106.702 53.3999 106.162 54.6185 105.27 55.4945C104.378 56.3705 103.205 56.8347 102.001 56.788H95.243C94.8221 56.7607 94.4007 56.831 94.007 56.9942C93.6132 57.1575 93.2562 57.4098 92.9598 57.7344C92.3356 58.5322 91.953 59.5184 91.8638 60.5595H114.344C115.427 60.5595 118.414 57.918 120.515 55.4603C120.637 55.3182 120.784 55.2048 120.948 55.1271C121.112 55.0493 121.288 55.0089 121.467 55.0082H122.459C122.805 55.0082 123.137 55.1571 123.382 55.422C123.626 55.6869 123.764 56.0461 123.764 56.4208C123.764 56.7954 123.626 57.1547 123.382 57.4196C123.137 57.6845 122.805 57.8333 122.459 57.8333H122.041C120.489 59.5707 116.823 63.3845 114.344 63.3845H90.4808L90.4547 63.4269Z" fill="#383F4E"/>
<path d="M128.696 62.0002H122.93C122.584 62.0002 122.252 61.8514 122.007 61.5865C121.762 61.3216 121.625 60.9623 121.625 60.5877V36.3912C121.625 36.0165 121.762 35.6573 122.007 35.3924C122.252 35.1275 122.584 34.9786 122.93 34.9786H128.696C129.042 34.9786 129.374 35.1275 129.619 35.3924C129.864 35.6573 130.001 36.0165 130.001 36.3912C130.001 36.7658 129.864 37.1251 129.619 37.39C129.374 37.6549 129.042 37.8037 128.696 37.8037H124.234V59.1752H128.696C129.042 59.1752 129.374 59.324 129.619 59.5889C129.864 59.8538 130.001 60.2131 130.001 60.5877C130.001 60.9623 129.864 61.3216 129.619 61.5865C129.374 61.8514 129.042 62.0002 128.696 62.0002Z" fill="#383F4E"/>
</g>
<defs>
<clipPath id="clip0">
<rect width="130" height="110" fill="white"/>
</clipPath>
</defs>
</svg>
