<svg width="96" height="87" viewBox="0 0 96 87" fill="none" xmlns="http://www.w3.org/2000/svg">
<path d="M94.0186 62.2852V8.42384C94.0237 8.08939 93.9625 7.75724 93.8384 7.44664C93.7143 7.13604 93.5298 6.85315 93.2956 6.61437C93.0614 6.3756 92.7822 6.18568 92.4741 6.05562C92.166 5.92556 91.8351 5.85794 91.5007 5.85669H4.46931C4.1349 5.85794 3.80405 5.92556 3.49595 6.05562C3.18785 6.18568 2.90861 6.3756 2.67442 6.61437C2.44023 6.85315 2.25574 7.13604 2.13164 7.44664C2.00755 7.75724 1.94631 8.08939 1.95147 8.42384V62.2852H94.0186Z" fill="white"/>
<path d="M95.9709 64.2372H0.000170199V8.42365C-0.00497907 7.83283 0.10676 7.24683 0.328954 6.69938C0.551149 6.15192 0.87941 5.65384 1.29484 5.23378C1.71027 4.81373 2.20467 4.48002 2.74957 4.25185C3.29446 4.02368 3.8791 3.90556 4.46982 3.9043H91.5012C92.6876 3.90688 93.8244 4.38005 94.6623 5.22C95.5003 6.05994 95.9709 7.19804 95.9709 8.38461V64.2372ZM3.9038 60.3328H92.0672V8.42365C92.0726 8.34562 92.0619 8.26732 92.036 8.19354C92.0101 8.11975 91.9694 8.05202 91.9164 7.99448C91.8634 7.93694 91.7993 7.89079 91.7279 7.85885C91.6565 7.82691 91.5794 7.80985 91.5012 7.80871H4.46982C4.39164 7.80985 4.3145 7.82691 4.24312 7.85885C4.17174 7.89079 4.10761 7.93694 4.05465 7.99448C4.00169 8.05202 3.961 8.11975 3.93506 8.19354C3.90913 8.26732 3.89849 8.34562 3.9038 8.42365V60.3328Z" fill="#282D33"/>
<path d="M1.95117 62.2363V70.0452C2.00548 70.838 2.33599 71.5867 2.88518 72.1609C3.43438 72.7352 4.16749 73.0987 4.95697 73.1882H91.6761C93.1595 73.1882 94.0475 71.6557 94.0475 70.172V62.2363H1.95117Z" fill="white"/>
<path d="M91.6767 75.1012H4.96737C3.65491 75.0197 2.41961 74.4531 1.50157 73.5114C0.583527 72.5697 0.048331 71.3203 0 70.0059L0 60.2449H96V70.1328C96 72.5731 94.38 75.1012 91.6767 75.1012ZM3.90363 64.1883V70.045C3.95753 70.3193 4.08362 70.5742 4.26889 70.7836C4.45416 70.9929 4.69191 71.149 4.95761 71.2358H91.6767C91.7938 71.2358 92.0964 70.777 92.0964 70.1718V64.1883H3.90363Z" fill="#282D33"/>
<path d="M37.7589 73.2078C37.6027 75.16 37.9443 79.4353 37.5344 81.5339C37.1538 83.4861 36.8805 83.4861 35.8656 84.0913C35.2898 84.4037 34.3237 84.8429 33.5039 85.1943" fill="white"/>
<path d="M34.2841 86.9902L32.7324 83.4079C33.7083 82.9882 34.4988 82.6075 34.9282 82.3733L35.0551 82.3049C35.1819 82.2366 35.2893 82.1878 35.3771 82.1292C35.4784 81.8092 35.5599 81.4832 35.6211 81.1531C35.7985 79.5327 35.8507 77.9011 35.7773 76.2726C35.7773 75.033 35.7773 73.8519 35.7773 73.0027L39.6809 73.3248C39.6223 73.9886 39.6809 75.072 39.6809 76.2531C39.7766 78.1369 39.6982 80.0256 39.4467 81.895C38.9782 84.2279 38.4122 84.8916 36.9386 85.7018L36.8117 85.7799C36.1091 86.1801 35.0551 86.6486 34.2841 86.9902Z" fill="#282D33"/>
<path d="M62.4581 85.2041C61.6383 84.8527 60.6527 84.4037 60.0671 84.0913C59.0912 83.5252 58.8472 83.4569 58.4764 81.534C58.0568 79.4353 58.3983 75.2479 58.2422 73.3152" fill="white"/>
<path d="M61.6292 87.0001C60.8387 86.6584 59.7554 86.1704 59.0821 85.7995L58.9942 85.7507C57.3938 84.8624 56.9546 84.1889 56.5057 81.9146C56.2549 80.068 56.1765 78.2021 56.2715 76.341C56.2715 75.2088 56.2715 74.135 56.2715 73.4713L60.1751 73.1589C60.2434 74.0081 60.2336 75.1111 60.1751 76.3898C60.1023 77.9795 60.1578 79.5725 60.341 81.1532C60.4029 81.4823 60.481 81.808 60.5752 82.1293L60.8875 82.2953C61.3755 82.5686 62.1855 82.9493 63.1906 83.3787L61.6292 87.0001Z" fill="#282D33"/>
<path d="M65.0435 83.0859H30.9746V86.9903H65.0435V83.0859Z" fill="#282D33"/>
<path d="M23.9297 39.4248H12.3652V53.8614H23.9297V39.4248Z" fill="#F8C44F"/>
<path d="M42.9981 20.02H31.4238V53.8615H42.9981V20.02Z" fill="white"/>
<path d="M44.9505 55.8135H29.4727V18.0676H44.9505V55.8135ZM33.3763 51.9091H41.0469V21.972H33.3763V51.9091Z" fill="#282D33"/>
<path d="M62.0684 29.1758H50.4941V53.8614H62.0684V29.1758Z" fill="#F8C44F"/>
<path d="M81.127 12.1819H69.5625V53.8615H81.127V12.1819Z" fill="#5EB4E7"/>
<path d="M47.5862 3.03978e-10H26.2919C26.0894 3.03978e-10 25.8889 0.0398913 25.7019 0.117396C25.5148 0.194901 25.3448 0.308502 25.2016 0.451712C25.0584 0.594923 24.9449 0.764938 24.8674 0.952051C24.7899 1.13916 24.75 1.33971 24.75 1.54224V10.3955C24.75 10.8045 24.9125 11.1968 25.2016 11.486C25.4908 11.7752 25.883 11.9377 26.2919 11.9377H34.8409L35.4069 12.9138L36.9391 15.6176L38.481 12.9626L39.0373 11.9865H47.5862C47.9961 11.9865 48.3893 11.8244 48.68 11.5354C48.9707 11.2465 49.1353 10.8542 49.1379 10.4443V1.54224C49.1353 1.13232 48.9707 0.740064 48.68 0.451115C48.3893 0.162165 47.9961 -8.10727e-06 47.5862 3.03978e-10V3.03978e-10Z" fill="#5EB4E7"/>
<path d="M42.6759 4.09961H31.1895V8.00402H42.6759V4.09961Z" fill="white"/>
<path d="M87.3632 51.9092H8.63672V55.8136H87.3632V51.9092Z" fill="#282D33"/>
</svg>
