<svg width="119" height="71" viewBox="0 0 119 71" fill="none" xmlns="http://www.w3.org/2000/svg">
<path d="M15.3066 60.825V5.12977C15.3066 4.33376 15.6249 3.57036 16.1913 3.00749C16.7578 2.44463 17.5261 2.12842 18.3272 2.12842H100.685C101.486 2.12842 102.254 2.44463 102.82 3.00749C103.387 3.57036 103.705 4.33376 103.705 5.12977V60.825" fill="white"/>
<path d="M105.836 60.8252H101.552V5.12997C101.552 4.90034 101.461 4.67995 101.298 4.51658C101.136 4.35322 100.915 4.26003 100.684 4.25723H18.3268C18.0939 4.25723 17.8705 4.34918 17.7057 4.51285C17.541 4.67652 17.4485 4.8985 17.4485 5.12997V60.8252H13.1641V5.12997C13.1641 3.76941 13.708 2.46459 14.6762 1.50253C15.6444 0.540477 16.9576 0 18.3268 0L100.684 0C102.053 0 103.367 0.540477 104.335 1.50253C105.303 2.46459 105.847 3.76941 105.847 5.12997L105.836 60.8252Z" fill="#282D33"/>
<path d="M97.2669 8.51465H21.7324V54.3544H97.2669V8.51465Z" fill="#5EB4E7"/>
<path d="M2.14258 60.5486V65.9872C2.14258 65.9872 6.10567 68.9247 9.01909 68.9247H109.982C112.895 68.9247 116.858 65.9872 116.858 65.9872V60.5486H2.14258Z" fill="white"/>
<path d="M109.981 71H9.01872C5.49478 71 1.32817 67.9774 0.856886 67.6368L0 67.0515V58.4199H119V67.0515L118.143 67.69C117.683 67.9774 113.537 71 109.981 71ZM4.28443 64.8164C5.68882 65.8183 7.31052 66.4781 9.01872 66.7428H109.981C111.309 66.7428 113.377 65.6785 114.716 64.8058V62.6772H4.28443V64.8164Z" fill="#282D33"/>
<path d="M46.6792 12.2717H37.1035V16.529H46.6792V12.2717Z" fill="white"/>
<path d="M78.7468 12.2717H59.1562V16.529H78.7468V12.2717Z" fill="white"/>
<path d="M55.0123 12.2717H50.5137V16.529H55.0123V12.2717Z" fill="white"/>
<path d="M48.1033 29.428H40.2949V33.6852H48.1033V29.428Z" fill="white"/>
<path d="M78.7494 29.428H62.7363V33.6852H78.7494V29.428Z" fill="white"/>
<path d="M58.5801 29.428H51.8535V33.6852H58.5801V29.428Z" fill="white"/>
<path d="M93.0784 46.5847H80.3965V50.8419H93.0784V46.5847Z" fill="white"/>
<path d="M75.7071 46.5847H51.8535V50.8419H75.7071V46.5847Z" fill="white"/>
<path d="M93.079 29.428H82.957V33.6852H93.079V29.428Z" fill="white"/>
<path d="M48.1143 38.0063H44.4512V42.2636H48.1143V38.0063Z" fill="white"/>
<path d="M76.1355 38.0063H51.8535V42.2636H76.1355V38.0063Z" fill="white"/>
<path d="M87.3053 12.2717H82.8066V16.529H87.3053V12.2717Z" fill="white"/>
<path d="M75.6955 20.8496H37.1035V25.1068H75.6955V20.8496Z" fill="white"/>
<path d="M29.8078 12.2717H25.834V16.529H29.8078V12.2717Z" fill="white"/>
<path d="M29.8078 20.8496H25.834V25.1068H29.8078V20.8496Z" fill="white"/>
<path d="M29.8078 29.428H25.834V33.6852H29.8078V29.428Z" fill="white"/>
<path d="M29.8078 38.0063H25.834V42.2636H29.8078V38.0063Z" fill="white"/>
<path d="M29.8078 46.5847H25.834V50.8419H29.8078V46.5847Z" fill="white"/>
</svg>
